<?xml version="1.0" encoding="UTF-8"?>
<svg width="144px" height="36px" viewBox="0 0 144 36" version="1.1" xmlns="http://www.w3.org/2000/svg" xmlns:xlink="http://www.w3.org/1999/xlink">
    <!-- Generator: Sketch 56.3 (81716) - https://sketch.com -->
    <title>leftbar_icon_Answercard</title>
    <desc>Created with Sketch.</desc>
    <defs>
        <filter x="-72.7%" y="-100.0%" width="245.5%" height="300.0%" filterUnits="objectBoundingBox" id="filter-1">
            <feOffset dx="0" dy="2" in="SourceAlpha" result="shadowOffsetOuter1"></feOffset>
            <feGaussianBlur stdDeviation="3" in="shadowOffsetOuter1" result="shadowBlurOuter1"></feGaussianBlur>
            <feColorMatrix values="0 0 0 0 0.0588235294   0 0 0 0 0.407843137   0 0 0 0 0.419607843  0 0 0 0.3 0" type="matrix" in="shadowBlurOuter1" result="shadowMatrixOuter1"></feColorMatrix>
            <feMerge>
                <feMergeNode in="shadowMatrixOuter1"></feMergeNode>
                <feMergeNode in="SourceGraphic"></feMergeNode>
            </feMerge>
        </filter>
        <linearGradient x1="4.7668457%" y1="23.553719%" x2="121.242161%" y2="81.5279437%" id="linearGradient-2">
            <stop stop-color="#F2FEFF" offset="0%"></stop>
            <stop stop-color="#88EAF0" offset="100%"></stop>
        </linearGradient>
        <path d="M9,5 L13,5 C13.5522847,5 14,5.44771525 14,6 C14,6.55228475 13.5522847,7 13,7 L9,7 C8.44771525,7 8,6.55228475 8,6 C8,5.44771525 8.44771525,5 9,5 Z M9,9 L13,9 C13.5522847,9 14,9.44771525 14,10 C14,10.5522847 13.5522847,11 13,11 L9,11 C8.44771525,11 8,10.5522847 8,10 C8,9.44771525 8.44771525,9 9,9 Z" id="path-3"></path>
        <filter x="-3.3%" y="-3.3%" width="106.7%" height="113.3%" filterUnits="objectBoundingBox" id="filter-4">
            <feOffset dx="0" dy="0.4" in="SourceAlpha" result="shadowOffsetOuter1"></feOffset>
            <feColorMatrix values="0 0 0 0 1   0 0 0 0 1   0 0 0 0 1  0 0 0 0.5 0" type="matrix" in="shadowOffsetOuter1"></feColorMatrix>
        </filter>
        <filter x="-33.3%" y="-33.3%" width="166.7%" height="173.3%" filterUnits="objectBoundingBox" id="filter-5">
            <feGaussianBlur stdDeviation="1.5" in="SourceAlpha" result="shadowBlurInner1"></feGaussianBlur>
            <feOffset dx="0" dy="1" in="shadowBlurInner1" result="shadowOffsetInner1"></feOffset>
            <feComposite in="shadowOffsetInner1" in2="SourceAlpha" operator="arithmetic" k2="-1" k3="1" result="shadowInnerInner1"></feComposite>
            <feColorMatrix values="0 0 0 0 0   0 0 0 0 0   0 0 0 0 0  0 0 0 0.1 0" type="matrix" in="shadowInnerInner1"></feColorMatrix>
        </filter>
        <filter x="-72.7%" y="-100.0%" width="245.5%" height="300.0%" filterUnits="objectBoundingBox" id="filter-6">
            <feOffset dx="0" dy="2" in="SourceAlpha" result="shadowOffsetOuter1"></feOffset>
            <feGaussianBlur stdDeviation="3" in="shadowOffsetOuter1" result="shadowBlurOuter1"></feGaussianBlur>
            <feColorMatrix values="0 0 0 0 0.0588235294   0 0 0 0 0.407843137   0 0 0 0 0.419607843  0 0 0 0.3 0" type="matrix" in="shadowBlurOuter1" result="shadowMatrixOuter1"></feColorMatrix>
            <feMerge>
                <feMergeNode in="shadowMatrixOuter1"></feMergeNode>
                <feMergeNode in="SourceGraphic"></feMergeNode>
            </feMerge>
        </filter>
        <linearGradient x1="4.7668457%" y1="23.553719%" x2="121.242161%" y2="81.5279437%" id="linearGradient-7">
            <stop stop-color="#E0FFFF" offset="0%"></stop>
            <stop stop-color="#00CE88" offset="100%"></stop>
        </linearGradient>
        <path d="M9,5 L13,5 C13.5522847,5 14,5.44771525 14,6 C14,6.55228475 13.5522847,7 13,7 L9,7 C8.44771525,7 8,6.55228475 8,6 C8,5.44771525 8.44771525,5 9,5 Z M9,9 L13,9 C13.5522847,9 14,9.44771525 14,10 C14,10.5522847 13.5522847,11 13,11 L9,11 C8.44771525,11 8,10.5522847 8,10 C8,9.44771525 8.44771525,9 9,9 Z" id="path-8"></path>
        <filter x="-3.3%" y="-3.3%" width="106.7%" height="113.3%" filterUnits="objectBoundingBox" id="filter-9">
            <feOffset dx="0" dy="0.4" in="SourceAlpha" result="shadowOffsetOuter1"></feOffset>
            <feColorMatrix values="0 0 0 0 1   0 0 0 0 1   0 0 0 0 1  0 0 0 0.5 0" type="matrix" in="shadowOffsetOuter1"></feColorMatrix>
        </filter>
        <filter x="-33.3%" y="-33.3%" width="166.7%" height="173.3%" filterUnits="objectBoundingBox" id="filter-10">
            <feGaussianBlur stdDeviation="1.5" in="SourceAlpha" result="shadowBlurInner1"></feGaussianBlur>
            <feOffset dx="0" dy="1" in="shadowBlurInner1" result="shadowOffsetInner1"></feOffset>
            <feComposite in="shadowOffsetInner1" in2="SourceAlpha" operator="arithmetic" k2="-1" k3="1" result="shadowInnerInner1"></feComposite>
            <feColorMatrix values="0 0 0 0 0   0 0 0 0 0   0 0 0 0 0  0 0 0 0.1 0" type="matrix" in="shadowInnerInner1"></feColorMatrix>
        </filter>
        <filter x="-72.7%" y="-100.0%" width="245.5%" height="300.0%" filterUnits="objectBoundingBox" id="filter-11">
            <feOffset dx="0" dy="2" in="SourceAlpha" result="shadowOffsetOuter1"></feOffset>
            <feGaussianBlur stdDeviation="3" in="shadowOffsetOuter1" result="shadowBlurOuter1"></feGaussianBlur>
            <feColorMatrix values="0 0 0 0 0.0588235294   0 0 0 0 0.407843137   0 0 0 0 0.419607843  0 0 0 0.3 0" type="matrix" in="shadowBlurOuter1" result="shadowMatrixOuter1"></feColorMatrix>
            <feMerge>
                <feMergeNode in="shadowMatrixOuter1"></feMergeNode>
                <feMergeNode in="SourceGraphic"></feMergeNode>
            </feMerge>
        </filter>
        <linearGradient x1="68.2825235%" y1="61.7835858%" x2="24.5933842%" y2="30.9681771%" id="linearGradient-12">
            <stop stop-color="#00FFB6" offset="0%"></stop>
            <stop stop-color="#00F4FF" offset="100%"></stop>
        </linearGradient>
        <path d="M9,5 L13,5 C13.5522847,5 14,5.44771525 14,6 C14,6.55228475 13.5522847,7 13,7 L9,7 C8.44771525,7 8,6.55228475 8,6 C8,5.44771525 8.44771525,5 9,5 Z M9,9 L13,9 C13.5522847,9 14,9.44771525 14,10 C14,10.5522847 13.5522847,11 13,11 L9,11 C8.44771525,11 8,10.5522847 8,10 C8,9.44771525 8.44771525,9 9,9 Z" id="path-13"></path>
        <filter x="-3.3%" y="-3.3%" width="106.7%" height="113.3%" filterUnits="objectBoundingBox" id="filter-14">
            <feOffset dx="0" dy="0.4" in="SourceAlpha" result="shadowOffsetOuter1"></feOffset>
            <feColorMatrix values="0 0 0 0 1   0 0 0 0 1   0 0 0 0 1  0 0 0 0.5 0" type="matrix" in="shadowOffsetOuter1"></feColorMatrix>
        </filter>
        <filter x="-33.3%" y="-33.3%" width="166.7%" height="173.3%" filterUnits="objectBoundingBox" id="filter-15">
            <feGaussianBlur stdDeviation="1.5" in="SourceAlpha" result="shadowBlurInner1"></feGaussianBlur>
            <feOffset dx="0" dy="1" in="shadowBlurInner1" result="shadowOffsetInner1"></feOffset>
            <feComposite in="shadowOffsetInner1" in2="SourceAlpha" operator="arithmetic" k2="-1" k3="1" result="shadowInnerInner1"></feComposite>
            <feColorMatrix values="0 0 0 0 0   0 0 0 0 0   0 0 0 0 0  0 0 0 0.1 0" type="matrix" in="shadowInnerInner1"></feColorMatrix>
        </filter>
        <filter x="-72.7%" y="-100.0%" width="245.5%" height="300.0%" filterUnits="objectBoundingBox" id="filter-16">
            <feOffset dx="0" dy="2" in="SourceAlpha" result="shadowOffsetOuter1"></feOffset>
            <feGaussianBlur stdDeviation="3" in="shadowOffsetOuter1" result="shadowBlurOuter1"></feGaussianBlur>
            <feColorMatrix values="0 0 0 0 0.0588235294   0 0 0 0 0.407843137   0 0 0 0 0.419607843  0 0 0 0.3 0" type="matrix" in="shadowBlurOuter1" result="shadowMatrixOuter1"></feColorMatrix>
            <feMerge>
                <feMergeNode in="shadowMatrixOuter1"></feMergeNode>
                <feMergeNode in="SourceGraphic"></feMergeNode>
            </feMerge>
        </filter>
        <path d="M9,5 L13,5 C13.5522847,5 14,5.44771525 14,6 C14,6.55228475 13.5522847,7 13,7 L9,7 C8.44771525,7 8,6.55228475 8,6 C8,5.44771525 8.44771525,5 9,5 Z M9,9 L13,9 C13.5522847,9 14,9.44771525 14,10 C14,10.5522847 13.5522847,11 13,11 L9,11 C8.44771525,11 8,10.5522847 8,10 C8,9.44771525 8.44771525,9 9,9 Z" id="path-17"></path>
        <filter x="-3.3%" y="-3.3%" width="106.7%" height="113.3%" filterUnits="objectBoundingBox" id="filter-18">
            <feOffset dx="0" dy="0.4" in="SourceAlpha" result="shadowOffsetOuter1"></feOffset>
            <feColorMatrix values="0 0 0 0 1   0 0 0 0 1   0 0 0 0 1  0 0 0 0.5 0" type="matrix" in="shadowOffsetOuter1"></feColorMatrix>
        </filter>
        <filter x="-33.3%" y="-33.3%" width="166.7%" height="173.3%" filterUnits="objectBoundingBox" id="filter-19">
            <feGaussianBlur stdDeviation="1.5" in="SourceAlpha" result="shadowBlurInner1"></feGaussianBlur>
            <feOffset dx="0" dy="1" in="shadowBlurInner1" result="shadowOffsetInner1"></feOffset>
            <feComposite in="shadowOffsetInner1" in2="SourceAlpha" operator="arithmetic" k2="-1" k3="1" result="shadowInnerInner1"></feComposite>
            <feColorMatrix values="0 0 0 0 0   0 0 0 0 0   0 0 0 0 0  0 0 0 0.1 0" type="matrix" in="shadowInnerInner1"></feColorMatrix>
        </filter>
    </defs>
    <g id="组件" stroke="none" stroke-width="1" fill="none" fill-rule="evenodd">
        <g id="直播平台通用版切图（连图）" transform="translate(-409.000000, -483.000000)">
            <g id="rightbar_icon_Answercard" transform="translate(409.000000, 483.000000)">
                <g id="leftbar/icon/Answercard/leftbar_icon_Answercard_normal">
                    <g id="rightbar_icon_Answercard_normal">
                        <g id="icon-mark/bg-36x36" opacity="0" stroke="#979797">
                            <g id="Group">
                                <rect id="Rectangle-8" x="0.5" y="0.5" width="35" height="35"></rect>
                                <rect id="Rectangle-8" x="10.5" y="10.5" width="15" height="15"></rect>
                                <rect id="Rectangle-41" x="6.5" y="6.5" width="23" height="23"></rect>
                                <path d="M1.5,1.5 L34.5,34.5" id="Line" stroke-linecap="square"></path>
                                <path d="M35,1 L1,35" id="Line-2" stroke-linecap="square"></path>
                            </g>
                        </g>
                        <g id="编组-17" filter="url(#filter-1)" transform="translate(7.000000, 10.000000)">
                            <path d="M8,0 L14,0 C16.209139,-4.05812251e-16 18,1.790861 18,4 L18,12 C18,14.209139 16.209139,16 14,16 L8,16 C5.790861,16 4,14.209139 4,12 L4,4 C4,1.790861 5.790861,4.05812251e-16 8,0 Z M1,3 C1.55228475,3 2,3.44771525 2,4 L2,12 C2,12.5522847 1.55228475,13 1,13 C0.44771525,13 6.76353751e-17,12.5522847 0,12 L0,4 C-6.76353751e-17,3.44771525 0.44771525,3 1,3 Z M21,3 C21.5522847,3 22,3.44771525 22,4 L22,12 C22,12.5522847 21.5522847,13 21,13 C20.4477153,13 20,12.5522847 20,12 L20,4 C20,3.44771525 20.4477153,3 21,3 Z" id="形状结合" fill="url(#linearGradient-2)"></path>
                            <g id="形状结合">
                                <use fill="black" fill-opacity="1" filter="url(#filter-4)" xlink:href="#path-3"></use>
                                <use fill="#66BFC4" fill-rule="evenodd" xlink:href="#path-3"></use>
                                <use fill="black" fill-opacity="1" filter="url(#filter-5)" xlink:href="#path-3"></use>
                            </g>
                        </g>
                    </g>
                </g>
                <g id="leftbar/icon/Answercard/leftbar_icon_Answercard_hover" transform="translate(36.000000, 0.000000)">
                    <g id="rightbar_icon_Answercard_hover">
                        <g id="icon-mark/bg-36x36" opacity="0" stroke="#979797">
                            <g id="Group">
                                <rect id="Rectangle-8" x="0.5" y="0.5" width="35" height="35"></rect>
                                <rect id="Rectangle-8" x="10.5" y="10.5" width="15" height="15"></rect>
                                <rect id="Rectangle-41" x="6.5" y="6.5" width="23" height="23"></rect>
                                <path d="M1.5,1.5 L34.5,34.5" id="Line" stroke-linecap="square"></path>
                                <path d="M35,1 L1,35" id="Line-2" stroke-linecap="square"></path>
                            </g>
                        </g>
                        <g id="编组-17" filter="url(#filter-6)" transform="translate(7.000000, 10.000000)">
                            <path d="M8,0 L14,0 C16.209139,-4.05812251e-16 18,1.790861 18,4 L18,12 C18,14.209139 16.209139,16 14,16 L8,16 C5.790861,16 4,14.209139 4,12 L4,4 C4,1.790861 5.790861,4.05812251e-16 8,0 Z M1,3 C1.55228475,3 2,3.44771525 2,4 L2,12 C2,12.5522847 1.55228475,13 1,13 C0.44771525,13 6.76353751e-17,12.5522847 0,12 L0,4 C-6.76353751e-17,3.44771525 0.44771525,3 1,3 Z M21,3 C21.5522847,3 22,3.44771525 22,4 L22,12 C22,12.5522847 21.5522847,13 21,13 C20.4477153,13 20,12.5522847 20,12 L20,4 C20,3.44771525 20.4477153,3 21,3 Z" id="形状结合" fill="url(#linearGradient-7)"></path>
                            <g id="形状结合">
                                <use fill="black" fill-opacity="1" filter="url(#filter-9)" xlink:href="#path-8"></use>
                                <use fill="#66C4B2" fill-rule="evenodd" xlink:href="#path-8"></use>
                                <use fill="black" fill-opacity="1" filter="url(#filter-10)" xlink:href="#path-8"></use>
                            </g>
                        </g>
                    </g>
                </g>
                <g id="leftbar/icon/Answercard/leftbar_icon_Answercard_active" transform="translate(72.000000, 0.000000)">
                    <g id="rightbar_icon_Answercard_active">
                        <g id="icon-mark/bg-36x36" opacity="0" stroke="#979797">
                            <g id="Group">
                                <rect id="Rectangle-8" x="0.5" y="0.5" width="35" height="35"></rect>
                                <rect id="Rectangle-8" x="10.5" y="10.5" width="15" height="15"></rect>
                                <rect id="Rectangle-41" x="6.5" y="6.5" width="23" height="23"></rect>
                                <path d="M1.5,1.5 L34.5,34.5" id="Line" stroke-linecap="square"></path>
                                <path d="M35,1 L1,35" id="Line-2" stroke-linecap="square"></path>
                            </g>
                        </g>
                        <g id="编组-17" filter="url(#filter-11)" transform="translate(7.000000, 10.000000)">
                            <path d="M8,0 L14,0 C16.209139,-4.05812251e-16 18,1.790861 18,4 L18,12 C18,14.209139 16.209139,16 14,16 L8,16 C5.790861,16 4,14.209139 4,12 L4,4 C4,1.790861 5.790861,4.05812251e-16 8,0 Z M1,3 C1.55228475,3 2,3.44771525 2,4 L2,12 C2,12.5522847 1.55228475,13 1,13 C0.44771525,13 6.76353751e-17,12.5522847 0,12 L0,4 C-6.76353751e-17,3.44771525 0.44771525,3 1,3 Z M21,3 C21.5522847,3 22,3.44771525 22,4 L22,12 C22,12.5522847 21.5522847,13 21,13 C20.4477153,13 20,12.5522847 20,12 L20,4 C20,3.44771525 20.4477153,3 21,3 Z" id="形状结合" fill="url(#linearGradient-12)"></path>
                            <g id="形状结合">
                                <use fill="black" fill-opacity="1" filter="url(#filter-14)" xlink:href="#path-13"></use>
                                <use fill="#0ACBB2" fill-rule="evenodd" xlink:href="#path-13"></use>
                                <use fill="black" fill-opacity="1" filter="url(#filter-15)" xlink:href="#path-13"></use>
                            </g>
                        </g>
                    </g>
                </g>
                <g id="leftbar/icon/Answercard/leftbar_icon_Answercard_disabled" transform="translate(108.000000, 0.000000)" opacity="0.300000012">
                    <g id="rightbar_icon_Answercard_disabled">
                        <g id="icon-mark/bg-36x36" opacity="0" stroke="#979797">
                            <g id="Group">
                                <rect id="Rectangle-8" x="0.5" y="0.5" width="35" height="35"></rect>
                                <rect id="Rectangle-8" x="10.5" y="10.5" width="15" height="15"></rect>
                                <rect id="Rectangle-41" x="6.5" y="6.5" width="23" height="23"></rect>
                                <path d="M1.5,1.5 L34.5,34.5" id="Line" stroke-linecap="square"></path>
                                <path d="M35,1 L1,35" id="Line-2" stroke-linecap="square"></path>
                            </g>
                        </g>
                        <g id="编组-17" filter="url(#filter-16)" transform="translate(7.000000, 10.000000)">
                            <path d="M8,0 L14,0 C16.209139,-4.05812251e-16 18,1.790861 18,4 L18,12 C18,14.209139 16.209139,16 14,16 L8,16 C5.790861,16 4,14.209139 4,12 L4,4 C4,1.790861 5.790861,4.05812251e-16 8,0 Z M1,3 C1.55228475,3 2,3.44771525 2,4 L2,12 C2,12.5522847 1.55228475,13 1,13 C0.44771525,13 6.76353751e-17,12.5522847 0,12 L0,4 C-6.76353751e-17,3.44771525 0.44771525,3 1,3 Z M21,3 C21.5522847,3 22,3.44771525 22,4 L22,12 C22,12.5522847 21.5522847,13 21,13 C20.4477153,13 20,12.5522847 20,12 L20,4 C20,3.44771525 20.4477153,3 21,3 Z" id="形状结合" fill="url(#linearGradient-2)"></path>
                            <g id="形状结合">
                                <use fill="black" fill-opacity="1" filter="url(#filter-18)" xlink:href="#path-17"></use>
                                <use fill="#66BFC4" fill-rule="evenodd" xlink:href="#path-17"></use>
                                <use fill="black" fill-opacity="1" filter="url(#filter-19)" xlink:href="#path-17"></use>
                            </g>
                        </g>
                    </g>
                </g>
            </g>
        </g>
    </g>
</svg>