<?xml version="1.0" encoding="UTF-8"?>
<svg width="144px" height="36px" viewBox="0 0 144 36" version="1.1" xmlns="http://www.w3.org/2000/svg" xmlns:xlink="http://www.w3.org/1999/xlink">
    <!-- Generator: Sketch 56.3 (81716) - https://sketch.com -->
    <title>leftbar_icon_connection</title>
    <desc>Created with Sketch.</desc>
    <defs>
        <filter x="-66.7%" y="-80.0%" width="233.3%" height="260.0%" filterUnits="objectBoundingBox" id="filter-1">
            <feOffset dx="0" dy="2" in="SourceAlpha" result="shadowOffsetOuter1"></feOffset>
            <feGaussianBlur stdDeviation="3" in="shadowOffsetOuter1" result="shadowBlurOuter1"></feGaussianBlur>
            <feColorMatrix values="0 0 0 0 0   0 0 0 0 0.509850543   0 0 0 0 0.364543139  0 0 0 0.5 0" type="matrix" in="shadowBlurOuter1" result="shadowMatrixOuter1"></feColorMatrix>
            <feMerge>
                <feMergeNode in="shadowMatrixOuter1"></feMergeNode>
                <feMergeNode in="SourceGraphic"></feMergeNode>
            </feMerge>
        </filter>
        <linearGradient x1="4.7668457%" y1="15.2777778%" x2="121.242161%" y2="91.3941101%" id="linearGradient-2">
            <stop stop-color="#F2FEFF" offset="0%"></stop>
            <stop stop-color="#88EAF0" offset="100%"></stop>
        </linearGradient>
        <path d="M16.001651,4 C18.21079,4 20.001651,5.790861 20.001651,8 C20.001651,10.209139 18.21079,12 16.001651,12 C13.792512,12 12.001651,10.209139 12.001651,8 C12.001651,5.790861 13.792512,4 16.001651,4 Z M16.001651,6 C14.8970815,6 14.001651,6.8954305 14.001651,8 C14.001651,9.1045695 14.8970815,10 16.001651,10 C17.1062205,10 18.001651,9.1045695 18.001651,8 C18.001651,6.8954305 17.1062205,6 16.001651,6 Z" id="path-3"></path>
        <filter x="-2.5%" y="-2.5%" width="105.0%" height="110.0%" filterUnits="objectBoundingBox" id="filter-4">
            <feOffset dx="0" dy="0.4" in="SourceAlpha" result="shadowOffsetOuter1"></feOffset>
            <feColorMatrix values="0 0 0 0 1   0 0 0 0 1   0 0 0 0 1  0 0 0 0.5 0" type="matrix" in="shadowOffsetOuter1"></feColorMatrix>
        </filter>
        <filter x="-25.0%" y="-25.0%" width="150.0%" height="155.0%" filterUnits="objectBoundingBox" id="filter-5">
            <feGaussianBlur stdDeviation="1.5" in="SourceAlpha" result="shadowBlurInner1"></feGaussianBlur>
            <feOffset dx="0" dy="1" in="shadowBlurInner1" result="shadowOffsetInner1"></feOffset>
            <feComposite in="shadowOffsetInner1" in2="SourceAlpha" operator="arithmetic" k2="-1" k3="1" result="shadowInnerInner1"></feComposite>
            <feColorMatrix values="0 0 0 0 0   0 0 0 0 0   0 0 0 0 0  0 0 0 0.1 0" type="matrix" in="shadowInnerInner1"></feColorMatrix>
        </filter>
        <filter x="-66.7%" y="-80.0%" width="233.3%" height="260.0%" filterUnits="objectBoundingBox" id="filter-6">
            <feOffset dx="0" dy="2" in="SourceAlpha" result="shadowOffsetOuter1"></feOffset>
            <feGaussianBlur stdDeviation="3" in="shadowOffsetOuter1" result="shadowBlurOuter1"></feGaussianBlur>
            <feColorMatrix values="0 0 0 0 0   0 0 0 0 0.509850543   0 0 0 0 0.364543139  0 0 0 0.5 0" type="matrix" in="shadowBlurOuter1" result="shadowMatrixOuter1"></feColorMatrix>
            <feMerge>
                <feMergeNode in="shadowMatrixOuter1"></feMergeNode>
                <feMergeNode in="SourceGraphic"></feMergeNode>
            </feMerge>
        </filter>
        <linearGradient x1="4.7668457%" y1="15.2777778%" x2="121.242161%" y2="91.3941101%" id="linearGradient-7">
            <stop stop-color="#E0FFFF" offset="0%"></stop>
            <stop stop-color="#00CE88" offset="100%"></stop>
        </linearGradient>
        <path d="M16.001651,4 C18.21079,4 20.001651,5.790861 20.001651,8 C20.001651,10.209139 18.21079,12 16.001651,12 C13.792512,12 12.001651,10.209139 12.001651,8 C12.001651,5.790861 13.792512,4 16.001651,4 Z M16.001651,6 C14.8970815,6 14.001651,6.8954305 14.001651,8 C14.001651,9.1045695 14.8970815,10 16.001651,10 C17.1062205,10 18.001651,9.1045695 18.001651,8 C18.001651,6.8954305 17.1062205,6 16.001651,6 Z" id="path-8"></path>
        <filter x="-2.5%" y="-2.5%" width="105.0%" height="110.0%" filterUnits="objectBoundingBox" id="filter-9">
            <feOffset dx="0" dy="0.4" in="SourceAlpha" result="shadowOffsetOuter1"></feOffset>
            <feColorMatrix values="0 0 0 0 1   0 0 0 0 1   0 0 0 0 1  0 0 0 0.5 0" type="matrix" in="shadowOffsetOuter1"></feColorMatrix>
        </filter>
        <filter x="-25.0%" y="-25.0%" width="150.0%" height="155.0%" filterUnits="objectBoundingBox" id="filter-10">
            <feGaussianBlur stdDeviation="1.5" in="SourceAlpha" result="shadowBlurInner1"></feGaussianBlur>
            <feOffset dx="0" dy="1" in="shadowBlurInner1" result="shadowOffsetInner1"></feOffset>
            <feComposite in="shadowOffsetInner1" in2="SourceAlpha" operator="arithmetic" k2="-1" k3="1" result="shadowInnerInner1"></feComposite>
            <feColorMatrix values="0 0 0 0 0   0 0 0 0 0   0 0 0 0 0  0 0 0 0.1 0" type="matrix" in="shadowInnerInner1"></feColorMatrix>
        </filter>
        <filter x="-66.7%" y="-80.0%" width="233.3%" height="260.0%" filterUnits="objectBoundingBox" id="filter-11">
            <feOffset dx="0" dy="2" in="SourceAlpha" result="shadowOffsetOuter1"></feOffset>
            <feGaussianBlur stdDeviation="3" in="shadowOffsetOuter1" result="shadowBlurOuter1"></feGaussianBlur>
            <feColorMatrix values="0 0 0 0 0   0 0 0 0 0.509850543   0 0 0 0 0.364543139  0 0 0 0.5 0" type="matrix" in="shadowBlurOuter1" result="shadowMatrixOuter1"></feColorMatrix>
            <feMerge>
                <feMergeNode in="shadowMatrixOuter1"></feMergeNode>
                <feMergeNode in="SourceGraphic"></feMergeNode>
            </feMerge>
        </filter>
        <linearGradient x1="68.2825235%" y1="65.4710707%" x2="24.5933842%" y2="25.0124721%" id="linearGradient-12">
            <stop stop-color="#00FFB6" offset="0%"></stop>
            <stop stop-color="#00F4FF" offset="100%"></stop>
        </linearGradient>
        <path d="M16.001651,4 C18.21079,4 20.001651,5.790861 20.001651,8 C20.001651,10.209139 18.21079,12 16.001651,12 C13.792512,12 12.001651,10.209139 12.001651,8 C12.001651,5.790861 13.792512,4 16.001651,4 Z M16.001651,6 C14.8970815,6 14.001651,6.8954305 14.001651,8 C14.001651,9.1045695 14.8970815,10 16.001651,10 C17.1062205,10 18.001651,9.1045695 18.001651,8 C18.001651,6.8954305 17.1062205,6 16.001651,6 Z" id="path-13"></path>
        <filter x="-2.5%" y="-2.5%" width="105.0%" height="110.0%" filterUnits="objectBoundingBox" id="filter-14">
            <feOffset dx="0" dy="0.4" in="SourceAlpha" result="shadowOffsetOuter1"></feOffset>
            <feColorMatrix values="0 0 0 0 1   0 0 0 0 1   0 0 0 0 1  0 0 0 0.5 0" type="matrix" in="shadowOffsetOuter1"></feColorMatrix>
        </filter>
        <filter x="-25.0%" y="-25.0%" width="150.0%" height="155.0%" filterUnits="objectBoundingBox" id="filter-15">
            <feGaussianBlur stdDeviation="1.5" in="SourceAlpha" result="shadowBlurInner1"></feGaussianBlur>
            <feOffset dx="0" dy="1" in="shadowBlurInner1" result="shadowOffsetInner1"></feOffset>
            <feComposite in="shadowOffsetInner1" in2="SourceAlpha" operator="arithmetic" k2="-1" k3="1" result="shadowInnerInner1"></feComposite>
            <feColorMatrix values="0 0 0 0 0   0 0 0 0 0   0 0 0 0 0  0 0 0 0.1 0" type="matrix" in="shadowInnerInner1"></feColorMatrix>
        </filter>
        <filter x="-66.7%" y="-80.0%" width="233.3%" height="260.0%" filterUnits="objectBoundingBox" id="filter-16">
            <feOffset dx="0" dy="2" in="SourceAlpha" result="shadowOffsetOuter1"></feOffset>
            <feGaussianBlur stdDeviation="3" in="shadowOffsetOuter1" result="shadowBlurOuter1"></feGaussianBlur>
            <feColorMatrix values="0 0 0 0 0   0 0 0 0 0.509850543   0 0 0 0 0.364543139  0 0 0 0.5 0" type="matrix" in="shadowBlurOuter1" result="shadowMatrixOuter1"></feColorMatrix>
            <feMerge>
                <feMergeNode in="shadowMatrixOuter1"></feMergeNode>
                <feMergeNode in="SourceGraphic"></feMergeNode>
            </feMerge>
        </filter>
        <path d="M16.001651,4 C18.21079,4 20.001651,5.790861 20.001651,8 C20.001651,10.209139 18.21079,12 16.001651,12 C13.792512,12 12.001651,10.209139 12.001651,8 C12.001651,5.790861 13.792512,4 16.001651,4 Z M16.001651,6 C14.8970815,6 14.001651,6.8954305 14.001651,8 C14.001651,9.1045695 14.8970815,10 16.001651,10 C17.1062205,10 18.001651,9.1045695 18.001651,8 C18.001651,6.8954305 17.1062205,6 16.001651,6 Z" id="path-17"></path>
        <filter x="-2.5%" y="-2.5%" width="105.0%" height="110.0%" filterUnits="objectBoundingBox" id="filter-18">
            <feOffset dx="0" dy="0.4" in="SourceAlpha" result="shadowOffsetOuter1"></feOffset>
            <feColorMatrix values="0 0 0 0 1   0 0 0 0 1   0 0 0 0 1  0 0 0 0.5 0" type="matrix" in="shadowOffsetOuter1"></feColorMatrix>
        </filter>
        <filter x="-25.0%" y="-25.0%" width="150.0%" height="155.0%" filterUnits="objectBoundingBox" id="filter-19">
            <feGaussianBlur stdDeviation="1.5" in="SourceAlpha" result="shadowBlurInner1"></feGaussianBlur>
            <feOffset dx="0" dy="1" in="shadowBlurInner1" result="shadowOffsetInner1"></feOffset>
            <feComposite in="shadowOffsetInner1" in2="SourceAlpha" operator="arithmetic" k2="-1" k3="1" result="shadowInnerInner1"></feComposite>
            <feColorMatrix values="0 0 0 0 0   0 0 0 0 0   0 0 0 0 0  0 0 0 0.1 0" type="matrix" in="shadowInnerInner1"></feColorMatrix>
        </filter>
    </defs>
    <g id="组件" stroke="none" stroke-width="1" fill="none" fill-rule="evenodd">
        <g id="直播平台通用版切图（连图）" transform="translate(-409.000000, -569.000000)">
            <g id="rightbar_icon_connection" transform="translate(409.000000, 569.000000)">
                <g id="leftbar/icon/connection/leftbar_icon_connection_normal">
                    <g id="rightbar_icon_connection_normal">
                        <g id="icon-mark/bg-36x36" opacity="0" stroke="#979797">
                            <g id="Group">
                                <rect id="Rectangle-8" x="0.5" y="0.5" width="35" height="35"></rect>
                                <rect id="Rectangle-8" x="10.5" y="10.5" width="15" height="15"></rect>
                                <rect id="Rectangle-41" x="6.5" y="6.5" width="23" height="23"></rect>
                                <path d="M1.5,1.5 L34.5,34.5" id="Line" stroke-linecap="square"></path>
                                <path d="M35,1 L1,35" id="Line-2" stroke-linecap="square"></path>
                            </g>
                        </g>
                        <g id="编组-18" filter="url(#filter-1)" transform="translate(6.000000, 8.000000)">
                            <path d="M14.9043039,18 L14.9043039,15.9255867 C11.0044305,15.3914386 8,12.0465805 8,8 C8,3.581722 11.581722,8.11624501e-16 16,0 C20.418278,-8.11624501e-16 24,3.581722 24,8 C24,12.1125342 20.8968351,15.5002855 16.9043039,15.9494553 L16.9043039,18 L17.9043039,18 C18.4565886,18 18.9043039,18.4477153 18.9043039,19 C18.9043039,19.5522847 18.4565886,20 17.9043039,20 L13.9043039,20 C13.3520191,20 12.9043039,19.5522847 12.9043039,19 C12.9043039,18.4477153 13.3520191,18 13.9043039,18 L14.9043039,18 Z M3.84692447,3.53603448 C3.55088081,3.06979785 3.68884946,2.45184758 4.15508609,2.15580391 C4.62132272,1.85976024 5.23927299,1.9977289 5.53531666,2.46396552 L7.4402099,5.46396552 C7.8629491,6.12973386 7.38465562,7 6.59601381,7 L1.00003133,7 C0.447746583,7 3.13332071e-05,6.55228475 3.13332071e-05,6 C3.13332071e-05,5.44771525 0.447746583,5 1.00003133,5 L4.77649048,5 L3.84692447,3.53603448 Z M3.75789754,12.4104007 C4.05909831,12.8733224 3.92799756,13.4927661 3.46507582,13.7939669 C3.00215407,14.0951676 2.38271039,13.9640669 2.08150961,13.5011451 L0.163456988,10.5532501 C-0.269374799,9.88802187 0.208006252,9.00787783 1.00165095,9.00787783 L6.47003864,9.00787783 C7.02232339,9.00787783 7.47003864,9.45559308 7.47003864,10.0078778 C7.47003864,10.5601626 7.02232339,11.0078778 6.47003864,11.0078778 L2.84534383,11.0078778 L3.75789754,12.4104007 Z" id="形状结合" fill="url(#linearGradient-2)"></path>
                            <g id="形状结合">
                                <use fill="black" fill-opacity="1" filter="url(#filter-4)" xlink:href="#path-3"></use>
                                <use fill="#66BFC4" fill-rule="evenodd" xlink:href="#path-3"></use>
                                <use fill="black" fill-opacity="1" filter="url(#filter-5)" xlink:href="#path-3"></use>
                            </g>
                        </g>
                    </g>
                </g>
                <g id="leftbar/icon/connection/leftbar_icon_connection_hover" transform="translate(36.000000, 0.000000)">
                    <g id="rightbar_icon_connection_hover">
                        <g id="icon-mark/bg-36x36" opacity="0" stroke="#979797">
                            <g id="Group">
                                <rect id="Rectangle-8" x="0.5" y="0.5" width="35" height="35"></rect>
                                <rect id="Rectangle-8" x="10.5" y="10.5" width="15" height="15"></rect>
                                <rect id="Rectangle-41" x="6.5" y="6.5" width="23" height="23"></rect>
                                <path d="M1.5,1.5 L34.5,34.5" id="Line" stroke-linecap="square"></path>
                                <path d="M35,1 L1,35" id="Line-2" stroke-linecap="square"></path>
                            </g>
                        </g>
                        <g id="编组-18" filter="url(#filter-6)" transform="translate(6.000000, 8.000000)">
                            <path d="M14.9043039,18 L14.9043039,15.9255867 C11.0044305,15.3914386 8,12.0465805 8,8 C8,3.581722 11.581722,8.11624501e-16 16,0 C20.418278,-8.11624501e-16 24,3.581722 24,8 C24,12.1125342 20.8968351,15.5002855 16.9043039,15.9494553 L16.9043039,18 L17.9043039,18 C18.4565886,18 18.9043039,18.4477153 18.9043039,19 C18.9043039,19.5522847 18.4565886,20 17.9043039,20 L13.9043039,20 C13.3520191,20 12.9043039,19.5522847 12.9043039,19 C12.9043039,18.4477153 13.3520191,18 13.9043039,18 L14.9043039,18 Z M3.84692447,3.53603448 C3.55088081,3.06979785 3.68884946,2.45184758 4.15508609,2.15580391 C4.62132272,1.85976024 5.23927299,1.9977289 5.53531666,2.46396552 L7.4402099,5.46396552 C7.8629491,6.12973386 7.38465562,7 6.59601381,7 L1.00003133,7 C0.447746583,7 3.13332071e-05,6.55228475 3.13332071e-05,6 C3.13332071e-05,5.44771525 0.447746583,5 1.00003133,5 L4.77649048,5 L3.84692447,3.53603448 Z M3.75789754,12.4104007 C4.05909831,12.8733224 3.92799756,13.4927661 3.46507582,13.7939669 C3.00215407,14.0951676 2.38271039,13.9640669 2.08150961,13.5011451 L0.163456988,10.5532501 C-0.269374799,9.88802187 0.208006252,9.00787783 1.00165095,9.00787783 L6.47003864,9.00787783 C7.02232339,9.00787783 7.47003864,9.45559308 7.47003864,10.0078778 C7.47003864,10.5601626 7.02232339,11.0078778 6.47003864,11.0078778 L2.84534383,11.0078778 L3.75789754,12.4104007 Z" id="形状结合" fill="url(#linearGradient-7)"></path>
                            <g id="形状结合">
                                <use fill="black" fill-opacity="1" filter="url(#filter-9)" xlink:href="#path-8"></use>
                                <use fill="#66C4B2" fill-rule="evenodd" xlink:href="#path-8"></use>
                                <use fill="black" fill-opacity="1" filter="url(#filter-10)" xlink:href="#path-8"></use>
                            </g>
                        </g>
                    </g>
                </g>
                <g id="leftbar/icon/connection/leftbar_icon_connection_active" transform="translate(72.000000, 0.000000)">
                    <g id="rightbar_icon_connection_active">
                        <g id="icon-mark/bg-36x36" opacity="0" stroke="#979797">
                            <g id="Group">
                                <rect id="Rectangle-8" x="0.5" y="0.5" width="35" height="35"></rect>
                                <rect id="Rectangle-8" x="10.5" y="10.5" width="15" height="15"></rect>
                                <rect id="Rectangle-41" x="6.5" y="6.5" width="23" height="23"></rect>
                                <path d="M1.5,1.5 L34.5,34.5" id="Line" stroke-linecap="square"></path>
                                <path d="M35,1 L1,35" id="Line-2" stroke-linecap="square"></path>
                            </g>
                        </g>
                        <g id="编组-18" filter="url(#filter-11)" transform="translate(6.000000, 8.000000)">
                            <path d="M14.9043039,18 L14.9043039,15.9255867 C11.0044305,15.3914386 8,12.0465805 8,8 C8,3.581722 11.581722,8.11624501e-16 16,0 C20.418278,-8.11624501e-16 24,3.581722 24,8 C24,12.1125342 20.8968351,15.5002855 16.9043039,15.9494553 L16.9043039,18 L17.9043039,18 C18.4565886,18 18.9043039,18.4477153 18.9043039,19 C18.9043039,19.5522847 18.4565886,20 17.9043039,20 L13.9043039,20 C13.3520191,20 12.9043039,19.5522847 12.9043039,19 C12.9043039,18.4477153 13.3520191,18 13.9043039,18 L14.9043039,18 Z M3.84692447,3.53603448 C3.55088081,3.06979785 3.68884946,2.45184758 4.15508609,2.15580391 C4.62132272,1.85976024 5.23927299,1.9977289 5.53531666,2.46396552 L7.4402099,5.46396552 C7.8629491,6.12973386 7.38465562,7 6.59601381,7 L1.00003133,7 C0.447746583,7 3.13332071e-05,6.55228475 3.13332071e-05,6 C3.13332071e-05,5.44771525 0.447746583,5 1.00003133,5 L4.77649048,5 L3.84692447,3.53603448 Z M3.75789754,12.4104007 C4.05909831,12.8733224 3.92799756,13.4927661 3.46507582,13.7939669 C3.00215407,14.0951676 2.38271039,13.9640669 2.08150961,13.5011451 L0.163456988,10.5532501 C-0.269374799,9.88802187 0.208006252,9.00787783 1.00165095,9.00787783 L6.47003864,9.00787783 C7.02232339,9.00787783 7.47003864,9.45559308 7.47003864,10.0078778 C7.47003864,10.5601626 7.02232339,11.0078778 6.47003864,11.0078778 L2.84534383,11.0078778 L3.75789754,12.4104007 Z" id="形状结合" fill="url(#linearGradient-12)"></path>
                            <g id="形状结合">
                                <use fill="black" fill-opacity="1" filter="url(#filter-14)" xlink:href="#path-13"></use>
                                <use fill="#0ACBB2" fill-rule="evenodd" xlink:href="#path-13"></use>
                                <use fill="black" fill-opacity="1" filter="url(#filter-15)" xlink:href="#path-13"></use>
                            </g>
                        </g>
                    </g>
                </g>
                <g id="leftbar/icon/connection/leftbar_icon_connection_disabled" transform="translate(108.000000, 0.000000)" opacity="0.300000012">
                    <g id="rightbar_icon_connection_disabled">
                        <g id="icon-mark/bg-36x36" opacity="0" stroke="#979797">
                            <g id="Group">
                                <rect id="Rectangle-8" x="0.5" y="0.5" width="35" height="35"></rect>
                                <rect id="Rectangle-8" x="10.5" y="10.5" width="15" height="15"></rect>
                                <rect id="Rectangle-41" x="6.5" y="6.5" width="23" height="23"></rect>
                                <path d="M1.5,1.5 L34.5,34.5" id="Line" stroke-linecap="square"></path>
                                <path d="M35,1 L1,35" id="Line-2" stroke-linecap="square"></path>
                            </g>
                        </g>
                        <g id="编组-18" filter="url(#filter-16)" transform="translate(6.000000, 8.000000)">
                            <path d="M14.9043039,18 L14.9043039,15.9255867 C11.0044305,15.3914386 8,12.0465805 8,8 C8,3.581722 11.581722,8.11624501e-16 16,0 C20.418278,-8.11624501e-16 24,3.581722 24,8 C24,12.1125342 20.8968351,15.5002855 16.9043039,15.9494553 L16.9043039,18 L17.9043039,18 C18.4565886,18 18.9043039,18.4477153 18.9043039,19 C18.9043039,19.5522847 18.4565886,20 17.9043039,20 L13.9043039,20 C13.3520191,20 12.9043039,19.5522847 12.9043039,19 C12.9043039,18.4477153 13.3520191,18 13.9043039,18 L14.9043039,18 Z M3.84692447,3.53603448 C3.55088081,3.06979785 3.68884946,2.45184758 4.15508609,2.15580391 C4.62132272,1.85976024 5.23927299,1.9977289 5.53531666,2.46396552 L7.4402099,5.46396552 C7.8629491,6.12973386 7.38465562,7 6.59601381,7 L1.00003133,7 C0.447746583,7 3.13332071e-05,6.55228475 3.13332071e-05,6 C3.13332071e-05,5.44771525 0.447746583,5 1.00003133,5 L4.77649048,5 L3.84692447,3.53603448 Z M3.75789754,12.4104007 C4.05909831,12.8733224 3.92799756,13.4927661 3.46507582,13.7939669 C3.00215407,14.0951676 2.38271039,13.9640669 2.08150961,13.5011451 L0.163456988,10.5532501 C-0.269374799,9.88802187 0.208006252,9.00787783 1.00165095,9.00787783 L6.47003864,9.00787783 C7.02232339,9.00787783 7.47003864,9.45559308 7.47003864,10.0078778 C7.47003864,10.5601626 7.02232339,11.0078778 6.47003864,11.0078778 L2.84534383,11.0078778 L3.75789754,12.4104007 Z" id="形状结合" fill="url(#linearGradient-2)"></path>
                            <g id="形状结合">
                                <use fill="black" fill-opacity="1" filter="url(#filter-18)" xlink:href="#path-17"></use>
                                <use fill="#66BFC4" fill-rule="evenodd" xlink:href="#path-17"></use>
                                <use fill="black" fill-opacity="1" filter="url(#filter-19)" xlink:href="#path-17"></use>
                            </g>
                        </g>
                    </g>
                </g>
            </g>
        </g>
    </g>
</svg>