<?xml version="1.0" encoding="UTF-8"?>
<svg width="96px" height="24px" viewBox="0 0 96 24" version="1.1" xmlns="http://www.w3.org/2000/svg" xmlns:xlink="http://www.w3.org/1999/xlink">
    <!-- Generator: Sketch 54.1 (76490) - https://sketchapp.com -->
    <title>public_icon_play</title>
    <desc>Created with Sketch.</desc>
    <defs>
        <linearGradient x1="20.6152314%" y1="0%" x2="30.0044005%" y2="100%" id="linearGradient-1">
            <stop stop-color="#CDFCFF" offset="0%"></stop>
            <stop stop-color="#99EEF3" offset="100%"></stop>
        </linearGradient>
        <linearGradient x1="20.6152314%" y1="0%" x2="96.2809736%" y2="109.607519%" id="linearGradient-2">
            <stop stop-color="#E0FFFF" offset="0%"></stop>
            <stop stop-color="#00CE88" offset="100%"></stop>
        </linearGradient>
    </defs>
    <g id="组件" stroke="none" stroke-width="1" fill="none" fill-rule="evenodd">
        <g id="直播平台通用版切图（连图）" transform="translate(-1122.000000, -983.000000)">
            <g id="public_icon_play" transform="translate(1122.000000, 983.000000)">
                <g id="public_icon_play_normal" transform="translate(7.000000, 5.000000)" fill="url(#linearGradient-1)">
                    <path d="M2.33205029,0.554700196 L10.1278868,5.75192456 C10.8171799,6.21145325 11.0034407,7.14275726 10.543912,7.83205029 C10.4340597,7.99682873 10.2926653,8.13822315 10.1278868,8.24807544 L2.33205029,13.4452998 C1.64275726,13.9048285 0.711453247,13.7185677 0.251924558,13.0292747 C0.0876570412,12.7828734 2.92284625e-15,12.4933618 2.88657986e-15,12.1972244 L1.11022302e-15,1.80277564 C1.00876996e-15,0.974348513 0.671572875,0.302775638 1.5,0.302775638 C1.79613748,0.302775638 2.08564902,0.390432679 2.33205029,0.554700196 Z" id="矩形"></path>
                </g>
                <g id="public_icon_play_normal复制-2" transform="translate(31.000000, 5.000000)" fill="url(#linearGradient-2)">
                    <path d="M2.33205029,0.554700196 L10.1278868,5.75192456 C10.8171799,6.21145325 11.0034407,7.14275726 10.543912,7.83205029 C10.4340597,7.99682873 10.2926653,8.13822315 10.1278868,8.24807544 L2.33205029,13.4452998 C1.64275726,13.9048285 0.711453247,13.7185677 0.251924558,13.0292747 C0.0876570412,12.7828734 2.92284625e-15,12.4933618 2.88657986e-15,12.1972244 L1.11022302e-15,1.80277564 C1.00876996e-15,0.974348513 0.671572875,0.302775638 1.5,0.302775638 C1.79613748,0.302775638 2.08564902,0.390432679 2.33205029,0.554700196 Z" id="矩形"></path>
                </g>
                <g id="public_icon_play_normal复制-3" transform="translate(55.000000, 5.000000)" fill="url(#linearGradient-1)">
                    <path d="M2.33205029,0.554700196 L10.1278868,5.75192456 C10.8171799,6.21145325 11.0034407,7.14275726 10.543912,7.83205029 C10.4340597,7.99682873 10.2926653,8.13822315 10.1278868,8.24807544 L2.33205029,13.4452998 C1.64275726,13.9048285 0.711453247,13.7185677 0.251924558,13.0292747 C0.0876570412,12.7828734 2.92284625e-15,12.4933618 2.88657986e-15,12.1972244 L1.11022302e-15,1.80277564 C1.00876996e-15,0.974348513 0.671572875,0.302775638 1.5,0.302775638 C1.79613748,0.302775638 2.08564902,0.390432679 2.33205029,0.554700196 Z" id="矩形"></path>
                </g>
                <g id="public_icon_play_normal复制-5" opacity="0.200000003" transform="translate(79.000000, 5.000000)" fill="url(#linearGradient-1)">
                    <path d="M2.33205029,0.554700196 L10.1278868,5.75192456 C10.8171799,6.21145325 11.0034407,7.14275726 10.543912,7.83205029 C10.4340597,7.99682873 10.2926653,8.13822315 10.1278868,8.24807544 L2.33205029,13.4452998 C1.64275726,13.9048285 0.711453247,13.7185677 0.251924558,13.0292747 C0.0876570412,12.7828734 2.92284625e-15,12.4933618 2.88657986e-15,12.1972244 L1.11022302e-15,1.80277564 C1.00876996e-15,0.974348513 0.671572875,0.302775638 1.5,0.302775638 C1.79613748,0.302775638 2.08564902,0.390432679 2.33205029,0.554700196 Z" id="矩形"></path>
                </g>
            </g>
        </g>
    </g>
</svg>