<?xml version="1.0" encoding="UTF-8"?>
<svg width="64px" height="16px" viewBox="0 0 64 16" version="1.1" xmlns="http://www.w3.org/2000/svg" xmlns:xlink="http://www.w3.org/1999/xlink">
    <!-- Generator: Sketch 53.2 (72643) - https://sketchapp.com -->
    <title>public_icon_download</title>
    <desc>Created with Sketch.</desc>
    <g id="组件" stroke="none" stroke-width="1" fill="none" fill-rule="evenodd">
        <g id="前端切图（连图）" transform="translate(-1427.000000, -689.000000)" fill="#FFFFFF">
            <g id="public_icon_download" transform="translate(1427.000000, 689.000000)">
                <g id="public_icon_download_normal">
                    <rect id="Rectangle-9" opacity="0.05" x="0" y="0" width="16" height="16" rx="8"></rect>
                    <path d="M8.75,7.23528137 L9.98007755,6.00520382 C10.2729708,5.7123106 10.7478445,5.7123106 11.0407377,6.00520382 C11.3336309,6.29809704 11.3336309,6.77297077 11.0407377,7.06586399 L8.56586399,9.54073773 C8.27297077,9.83363094 7.79809704,9.83363094 7.50520382,9.54073773 L5.03033009,7.06586399 C4.73743687,6.77297077 4.73743687,6.29809704 5.03033009,6.00520382 C5.3232233,5.7123106 5.79809704,5.7123106 6.09099026,6.00520382 L7.25,7.16421356 L7.25,2.75 C7.25,2.33578644 7.58578644,2 8,2 C8.41421356,2 8.75,2.33578644 8.75,2.75 L8.75,7.23528137 Z" id="合并形状" opacity="0.699999988"></path>
                    <rect id="矩形" opacity="0.699999988" x="5" y="11" width="6" height="1.5" rx="0.75"></rect>
                </g>
                <g id="public_icon_download_hover" transform="translate(16.000000, 0.000000)">
                    <rect id="Rectangle-9" opacity="0.05" x="0" y="0" width="16" height="16" rx="8"></rect>
                    <path d="M8.75,7.23528137 L9.98007755,6.00520382 C10.2729708,5.7123106 10.7478445,5.7123106 11.0407377,6.00520382 C11.3336309,6.29809704 11.3336309,6.77297077 11.0407377,7.06586399 L8.56586399,9.54073773 C8.27297077,9.83363094 7.79809704,9.83363094 7.50520382,9.54073773 L5.03033009,7.06586399 C4.73743687,6.77297077 4.73743687,6.29809704 5.03033009,6.00520382 C5.3232233,5.7123106 5.79809704,5.7123106 6.09099026,6.00520382 L7.25,7.16421356 L7.25,2.75 C7.25,2.33578644 7.58578644,2 8,2 C8.41421356,2 8.75,2.33578644 8.75,2.75 L8.75,7.23528137 Z" id="合并形状"></path>
                    <rect id="矩形" x="5" y="11" width="6" height="1.5" rx="0.75"></rect>
                </g>
                <g id="public_icon_download_active" transform="translate(32.000000, 0.000000)">
                    <rect id="Rectangle-9" opacity="0.05" x="0" y="0" width="16" height="16" rx="8"></rect>
                    <path d="M8.75,7.23528137 L9.98007755,6.00520382 C10.2729708,5.7123106 10.7478445,5.7123106 11.0407377,6.00520382 C11.3336309,6.29809704 11.3336309,6.77297077 11.0407377,7.06586399 L8.56586399,9.54073773 C8.27297077,9.83363094 7.79809704,9.83363094 7.50520382,9.54073773 L5.03033009,7.06586399 C4.73743687,6.77297077 4.73743687,6.29809704 5.03033009,6.00520382 C5.3232233,5.7123106 5.79809704,5.7123106 6.09099026,6.00520382 L7.25,7.16421356 L7.25,2.75 C7.25,2.33578644 7.58578644,2 8,2 C8.41421356,2 8.75,2.33578644 8.75,2.75 L8.75,7.23528137 Z" id="合并形状" opacity="0.699999988"></path>
                    <rect id="矩形" opacity="0.699999988" x="5" y="11" width="6" height="1.5" rx="0.75"></rect>
                </g>
                <g id="public_icon_download_disabled" opacity="0.200000003" transform="translate(48.000000, 0.000000)">
                    <rect id="Rectangle-9" opacity="0.05" x="0" y="0" width="16" height="16" rx="8"></rect>
                    <path d="M8.75,7.23528137 L9.98007755,6.00520382 C10.2729708,5.7123106 10.7478445,5.7123106 11.0407377,6.00520382 C11.3336309,6.29809704 11.3336309,6.77297077 11.0407377,7.06586399 L8.56586399,9.54073773 C8.27297077,9.83363094 7.79809704,9.83363094 7.50520382,9.54073773 L5.03033009,7.06586399 C4.73743687,6.77297077 4.73743687,6.29809704 5.03033009,6.00520382 C5.3232233,5.7123106 5.79809704,5.7123106 6.09099026,6.00520382 L7.25,7.16421356 L7.25,2.75 C7.25,2.33578644 7.58578644,2 8,2 C8.41421356,2 8.75,2.33578644 8.75,2.75 L8.75,7.23528137 Z" id="合并形状" opacity="0.699999988"></path>
                    <rect id="矩形" opacity="0.699999988" x="5" y="11" width="6" height="1.5" rx="0.75"></rect>
                </g>
            </g>
        </g>
    </g>
</svg>