<?xml version="1.0" encoding="UTF-8"?>
<svg width="30px" height="35px" viewBox="0 0 30 35" version="1.1" xmlns="http://www.w3.org/2000/svg" xmlns:xlink="http://www.w3.org/1999/xlink">
    <!-- Generator: Sketch 53.2 (72643) - https://sketchapp.com -->
    <title>other_img_pdf</title>
    <desc>Created with Sketch.</desc>
    <g id="组件" stroke="none" stroke-width="1" fill="none" fill-rule="evenodd">
        <g id="前端切图（连图）" transform="translate(-1320.000000, -2150.000000)">
            <g id="other_img_pdf" transform="translate(1320.000000, 2150.000000)">
                <path d="M3,5.71764858e-14 L20,5.90638649e-14 L30,10.11686 L30,32 C30,33.6568542 28.6568542,35 27,35 L3,35 C1.34314575,35 -5.12616439e-15,33.6568542 -5.32907052e-15,32 L-5.77315973e-15,3 C-5.97606585e-15,1.34314575 1.34314575,5.75918673e-14 3,5.72875081e-14 Z" id="矩形" fill="#FF6B6B"></path>
                <g id="pdf" transform="translate(9.000000, 12.000000)" fill="#8F3434" fill-rule="nonzero">
                    <path d="M10.323252,8.93450407 C9.42413008,8.86790244 8.55830894,8.53489432 7.85899187,7.93547967 C6.49365854,8.23518699 5.19492683,8.66809756 3.89619512,9.20091057 C2.86386992,11.0324553 1.89814634,11.964878 1.06562601,11.964878 C0.899121951,11.964878 0.699317069,11.9315772 0.566113826,11.8316748 C0.199804882,11.6651707 0,11.2988618 0,10.9325528 C0,10.6328455 0.0666016273,9.8003252 3.23017886,8.43499187 C3.96279675,7.10295935 4.52891056,5.73762602 4.99512196,4.30569106 C4.5955122,3.50647154 3.72969106,1.54172358 4.32910569,0.542699192 C4.52891056,0.176390248 4.92852033,-0.0234146341 5.3614309,0.00988617366 C5.69443902,0.00988617366 6.02744716,0.176390236 6.22725203,0.442796745 C6.6601626,1.04221138 6.62686178,2.30764228 6.06074797,4.1724878 C6.59356098,5.17151219 7.29287804,6.07063414 8.12539837,6.83655285 C8.82471544,6.7033496 9.52403252,6.60344716 10.2233496,6.60344715 C11.7884878,6.63674796 12.0215935,7.36936585 11.9882927,7.80227642 C11.9882927,8.93450406 10.8893658,8.93450406 10.323252,8.93450407 L10.323252,8.93450407 Z M0.999024386,10.9991545 L1.09892683,10.9658537 C1.56513821,10.7993496 1.93144716,10.4663415 2.19785365,10.0334309 C1.69834146,10.2332358 1.2987317,10.5662439 0.999024386,10.9991545 Z M5.42803252,1.00891057 L5.32813008,1.00891057 C5.29482927,1.00891057 5.22822764,1.00891057 5.19492683,1.04221138 C5.06172357,1.60832521 5.16162602,2.20773984 5.39473171,2.74055285 C5.59453659,2.17443902 5.59453659,1.57502439 5.42803252,1.00891057 L5.42803252,1.00891057 Z M5.66113822,5.83752845 L5.6278374,5.90413008 L5.59453659,5.87082927 C5.29482927,6.63674797 4.96182115,7.40266667 4.59551219,8.13528455 L4.66211382,8.10198373 L4.66211382,8.16858536 C5.39473171,7.90217885 6.19395121,7.66907316 6.9265691,7.5025691 L6.89326829,7.46926829 L6.99317073,7.46926829 C6.49365853,6.96975609 6.02744715,6.40364228 5.66113822,5.83752845 L5.66113822,5.83752845 Z M10.1900488,7.60247155 C9.89034146,7.60247155 9.62393495,7.60247155 9.32422764,7.66907317 C9.65723576,7.83557724 9.9902439,7.90217886 10.323252,7.93547967 C10.5563577,7.96878048 10.7894634,7.93547967 10.9892683,7.86887804 C10.9892683,7.76897561 10.856065,7.60247154 10.1900488,7.60247155 Z" id="形状"></path>
                </g>
                <path d="M20,3.55271368e-15 L30,10 L23,10 C21.3431458,10 20,8.65685425 20,7 L20,3.55271368e-15 Z" id="矩形" fill="#FFCACA"></path>
            </g>
        </g>
    </g>
</svg>