<?xml version="1.0" encoding="UTF-8"?>
<svg width="48px" height="48px" viewBox="0 0 48 48" version="1.1" xmlns="http://www.w3.org/2000/svg" xmlns:xlink="http://www.w3.org/1999/xlink">
    <!-- Generator: Sketch 54.1 (76490) - https://sketchapp.com -->
    <title>img_music</title>
    <desc>Created with Sketch.</desc>
    <defs>
        <linearGradient x1="0%" y1="0%" x2="100%" y2="100%" id="linearGradient-1">
            <stop stop-color="#09D198" offset="0%"></stop>
            <stop stop-color="#1ACDD5" offset="100%"></stop>
        </linearGradient>
    </defs>
    <g id="组件" stroke="none" stroke-width="1" fill="none" fill-rule="evenodd">
        <g id="直播平台通用版切图（连图）" transform="translate(-1524.000000, -2696.000000)">
            <g id="other_img_music" transform="translate(1524.000000, 2696.000000)">
                <rect id="Rectangle-14" fill="url(#linearGradient-1)" x="0" y="0" width="48" height="48" rx="24"></rect>
                <g id="music" transform="translate(9.000000, 9.000000)" fill="#FFFFFF" fill-rule="nonzero">
                    <path d="M1.0601496,15.0307444 L2.08955478,15.0307444 C2.08955478,22.1926445 7.86888164,27.9719713 15.0307444,27.9719713 C22.1927191,27.9719713 27.9719713,22.1927564 27.9719713,15.0307444 C27.9719713,7.86876975 22.1927564,2.08951749 15.0307444,2.08951749 C7.86888164,2.08951749 2.08951749,7.86884434 2.08951749,15.0307444 L1.0601123,15.0307444 L1.0601496,15.0307444 Z M1.0601496,15.0307444 L0.0307444169,15.0307444 C0.0307444169,6.73172459 6.73179918,0.0307444169 15.0307444,0.0307444169 C23.3297642,0.0307444169 30.0307444,6.73172459 30.0307444,15.0307444 C30.0307444,23.3297642 23.3297642,30.0307444 15.0307444,30.0307444 C6.73183648,30.0307444 0.0307444169,23.3297269 0.0307444169,15.0307444 L1.0601496,15.0307444 Z" id="Shape"></path>
                    <path d="M15.0170099,10.7493797 L15.0170099,11.8337717 C13.2589578,11.8337717 11.8337717,13.2589578 11.8337717,15.0170099 C11.8337717,16.7751365 13.2589206,18.2002109 15.0170099,18.2002109 C16.7751365,18.2002109 18.2002109,16.7751365 18.2002109,15.0170099 C18.2002109,13.258995 16.7750248,11.8337717 15.0170099,11.8337717 L15.0170099,10.7493797 Z M15.0170099,10.7493797 L15.0170099,9.66502481 C17.9727916,9.66502481 20.368995,12.0612283 20.368995,15.0170099 C20.368995,17.9729032 17.972866,20.368995 15.0170099,20.368995 C12.0611166,20.368995 9.66502481,17.9729032 9.66502481,15.0170099 C9.66502481,12.0612283 12.0611911,9.66502481 15.0170099,9.66502481 L15.0170099,10.7493797 Z M18.6477543,6.14024814 C18.8236228,5.56779156 19.4302481,5.24620347 20.0027419,5.42207196 C20.0501985,5.43658809 20.118871,5.46033499 20.2066377,5.49431762 C20.3393672,5.54568238 20.4868362,5.60959057 20.6468859,5.68719603 C21.0900744,5.90210918 21.5567122,6.18550868 22.0288958,6.54688586 C22.8039454,7.13996278 23.5216005,7.8880273 24.1436725,8.8067866 C24.8890571,9.90763027 25.4655335,11.2088337 25.8375186,12.7210794 C25.9805211,13.3026551 25.625062,13.8900372 25.0434864,14.0330769 C24.4619479,14.1761166 23.8745285,13.8206576 23.7315261,13.2390447 C23.4206576,11.9752109 22.9488834,10.910397 22.3478412,10.0226799 C21.8602854,9.30264268 21.3049876,8.72378412 20.7109057,8.26920596 C20.3585732,7.99957816 20.0164764,7.79177419 19.7006203,7.63864764 C19.5950248,7.58743176 19.5020471,7.54715881 19.4237717,7.51682382 C19.4040789,7.50914713 19.3842494,7.50182584 19.3642928,7.49486352 C18.792469,7.31746898 18.4722208,6.71184864 18.6477916,6.14024814 L18.6477543,6.14024814 Z M6.16641439,18.7468362 C5.59280397,18.9189454 5.26730769,19.5234864 5.43949132,20.0971712 C5.45717525,20.1545209 5.47666385,20.2112985 5.49792804,20.2674194 C5.54334687,20.3881332 5.59342158,20.5070435 5.6480397,20.6238834 C5.81397022,20.9806824 6.03022333,21.3523697 6.30398263,21.7241315 C6.85436725,22.4716749 7.56949132,23.1288834 8.46718362,23.6376923 C8.98827543,23.9330025 9.64998759,23.7500248 9.94529777,23.2289702 C10.2405707,22.7079529 10.0575558,22.0462035 9.53653846,21.7509305 C8.91629032,21.3993797 8.42687345,20.9495658 8.05042184,20.4383002 C7.86591811,20.1876923 7.72183623,19.9401365 7.61449132,19.7092928 C7.58359147,19.6434082 7.55523311,19.5763613 7.52947891,19.5083002 C7.52439136,19.494779 7.51951484,19.4811794 7.51485112,19.4675062 C7.34456576,18.9001117 6.74002481,18.5746898 6.16641439,18.7468362 L6.16641439,18.7468362 Z" id="Shape"></path>
                </g>
            </g>
        </g>
    </g>
</svg>