<?xml version="1.0" encoding="UTF-8"?>
<svg width="96px" height="24px" viewBox="0 0 96 24" version="1.1" xmlns="http://www.w3.org/2000/svg" xmlns:xlink="http://www.w3.org/1999/xlink">
    <!-- Generator: Sketch 54.1 (76490) - https://sketchapp.com -->
    <title>public_icon_ commend</title>
    <desc>Created with Sketch.</desc>
    <defs>
        <linearGradient x1="0%" y1="0%" x2="116.86332%" y2="100%" id="linearGradient-1">
            <stop stop-color="#C9FBFE" offset="0%"></stop>
            <stop stop-color="#99EEF3" offset="100%"></stop>
        </linearGradient>
        <linearGradient x1="0%" y1="0%" x2="114.096576%" y2="97.6324958%" id="linearGradient-2">
            <stop stop-color="#CAFAF3" offset="0%"></stop>
            <stop stop-color="#38DBA6" offset="100%"></stop>
        </linearGradient>
    </defs>
    <g id="组件" stroke="none" stroke-width="1" fill="none" fill-rule="evenodd">
        <g id="直播平台通用版切图（连图）" transform="translate(-1137.000000, -541.000000)" fill-rule="nonzero" stroke-width="1.5">
            <g id="public_icon_-commend" transform="translate(1137.000000, 541.000000)">
                <g id="public_icon_-commend_normal" transform="translate(5.000000, 5.000000)" stroke="url(#linearGradient-1)">
                    <path d="M8.82635642,1.8747024 C8.82833532,1.88207985 8.83082317,1.88934865 8.83381113,1.89646246 L8.82635623,1.87470185 Z M8.82574381,1.87291421 L8.80097676,1.80062005 C8.63186376,1.1711549 8.09778482,0.75 7.48355155,0.75 C6.77772326,0.75 6.23664169,1.35037113 6.23638403,2.23533191 L6.2354045,2.272072 C6.23433854,2.30456775 6.23423661,2.32028583 6.23542959,2.40110628 C6.17297995,4.08568731 4.83381281,5.53641093 3.06726714,5.7567311 L1.12508165,5.78429148 C1.11705749,5.78356041 1.10913848,5.78319967 1.10125495,5.78319967 C0.916398789,5.78319967 0.755058652,5.94962059 0.755058439,6.16434927 L0.75,12.8768097 C0.75,13.0855119 0.910275797,13.2495815 1.09704728,13.2495815 L3.13905785,13.25 L3.13883103,13.2500012 L10.9049095,13.2363279 L10.9050599,13.2363279 C11.1348508,13.2363279 11.2602869,13.1917797 11.5099695,13.0264183 C11.7176402,12.8885236 11.8869975,12.6967497 12.0303203,12.4164873 C12.0513483,12.3818982 12.0664622,12.3461654 12.0745765,12.3146659 C12.0763376,12.3074639 12.0763376,12.3074639 12.0744664,12.3156046 L13.2356803,6.9732622 C13.2445934,6.93640293 13.2484206,6.89835687 13.2476258,6.79225355 C13.2644764,6.48152379 13.1914235,6.18246638 13.0359847,5.92200335 L13.0357986,5.92169122 C12.8005072,5.52698772 12.4727683,5.33307867 11.9371549,5.30407314 C11.9219334,5.30224581 11.909481,5.30146766 11.8965064,5.30146308 L8.61050089,5.28998499 L8.81017701,4.38213014 C8.90630674,3.94506314 8.95644644,3.50746085 8.95644644,3.10908975 C8.95644644,2.69671922 8.91241855,2.28034544 8.82574381,1.87291421 Z" id="路径"></path>
                </g>
                <g id="public_icon_-commend_hover" transform="translate(29.000000, 5.000000)" stroke="url(#linearGradient-2)">
                    <path d="M8.82635642,1.8747024 C8.82833532,1.88207985 8.83082317,1.88934865 8.83381113,1.89646246 L8.82635623,1.87470185 Z M8.82574381,1.87291421 L8.80097676,1.80062005 C8.63186376,1.1711549 8.09778482,0.75 7.48355155,0.75 C6.77772326,0.75 6.23664169,1.35037113 6.23638403,2.23533191 L6.2354045,2.272072 C6.23433854,2.30456775 6.23423661,2.32028583 6.23542959,2.40110628 C6.17297995,4.08568731 4.83381281,5.53641093 3.06726714,5.7567311 L1.12508165,5.78429148 C1.11705749,5.78356041 1.10913848,5.78319967 1.10125495,5.78319967 C0.916398789,5.78319967 0.755058652,5.94962059 0.755058439,6.16434927 L0.75,12.8768097 C0.75,13.0855119 0.910275797,13.2495815 1.09704728,13.2495815 L3.13905785,13.25 L3.13883103,13.2500012 L10.9049095,13.2363279 L10.9050599,13.2363279 C11.1348508,13.2363279 11.2602869,13.1917797 11.5099695,13.0264183 C11.7176402,12.8885236 11.8869975,12.6967497 12.0303203,12.4164873 C12.0513483,12.3818982 12.0664622,12.3461654 12.0745765,12.3146659 C12.0763376,12.3074639 12.0763376,12.3074639 12.0744664,12.3156046 L13.2356803,6.9732622 C13.2445934,6.93640293 13.2484206,6.89835687 13.2476258,6.79225355 C13.2644764,6.48152379 13.1914235,6.18246638 13.0359847,5.92200335 L13.0357986,5.92169122 C12.8005072,5.52698772 12.4727683,5.33307867 11.9371549,5.30407314 C11.9219334,5.30224581 11.909481,5.30146766 11.8965064,5.30146308 L8.61050089,5.28998499 L8.81017701,4.38213014 C8.90630674,3.94506314 8.95644644,3.50746085 8.95644644,3.10908975 C8.95644644,2.69671922 8.91241855,2.28034544 8.82574381,1.87291421 Z" id="路径"></path>
                </g>
                <g id="public_icon_-commend_active" transform="translate(53.000000, 5.000000)" stroke="url(#linearGradient-1)">
                    <path d="M8.82635642,1.8747024 C8.82833532,1.88207985 8.83082317,1.88934865 8.83381113,1.89646246 L8.82635623,1.87470185 Z M8.82574381,1.87291421 L8.80097676,1.80062005 C8.63186376,1.1711549 8.09778482,0.75 7.48355155,0.75 C6.77772326,0.75 6.23664169,1.35037113 6.23638403,2.23533191 L6.2354045,2.272072 C6.23433854,2.30456775 6.23423661,2.32028583 6.23542959,2.40110628 C6.17297995,4.08568731 4.83381281,5.53641093 3.06726714,5.7567311 L1.12508165,5.78429148 C1.11705749,5.78356041 1.10913848,5.78319967 1.10125495,5.78319967 C0.916398789,5.78319967 0.755058652,5.94962059 0.755058439,6.16434927 L0.75,12.8768097 C0.75,13.0855119 0.910275797,13.2495815 1.09704728,13.2495815 L3.13905785,13.25 L3.13883103,13.2500012 L10.9049095,13.2363279 L10.9050599,13.2363279 C11.1348508,13.2363279 11.2602869,13.1917797 11.5099695,13.0264183 C11.7176402,12.8885236 11.8869975,12.6967497 12.0303203,12.4164873 C12.0513483,12.3818982 12.0664622,12.3461654 12.0745765,12.3146659 C12.0763376,12.3074639 12.0763376,12.3074639 12.0744664,12.3156046 L13.2356803,6.9732622 C13.2445934,6.93640293 13.2484206,6.89835687 13.2476258,6.79225355 C13.2644764,6.48152379 13.1914235,6.18246638 13.0359847,5.92200335 L13.0357986,5.92169122 C12.8005072,5.52698772 12.4727683,5.33307867 11.9371549,5.30407314 C11.9219334,5.30224581 11.909481,5.30146766 11.8965064,5.30146308 L8.61050089,5.28998499 L8.81017701,4.38213014 C8.90630674,3.94506314 8.95644644,3.50746085 8.95644644,3.10908975 C8.95644644,2.69671922 8.91241855,2.28034544 8.82574381,1.87291421 Z" id="路径"></path>
                </g>
                <g id="public_icon_-commend_disabled" opacity="0.200000003" transform="translate(77.000000, 5.000000)" stroke="url(#linearGradient-1)">
                    <path d="M8.82635642,1.8747024 C8.82833532,1.88207985 8.83082317,1.88934865 8.83381113,1.89646246 L8.82635623,1.87470185 Z M8.82574381,1.87291421 L8.80097676,1.80062005 C8.63186376,1.1711549 8.09778482,0.75 7.48355155,0.75 C6.77772326,0.75 6.23664169,1.35037113 6.23638403,2.23533191 L6.2354045,2.272072 C6.23433854,2.30456775 6.23423661,2.32028583 6.23542959,2.40110628 C6.17297995,4.08568731 4.83381281,5.53641093 3.06726714,5.7567311 L1.12508165,5.78429148 C1.11705749,5.78356041 1.10913848,5.78319967 1.10125495,5.78319967 C0.916398789,5.78319967 0.755058652,5.94962059 0.755058439,6.16434927 L0.75,12.8768097 C0.75,13.0855119 0.910275797,13.2495815 1.09704728,13.2495815 L3.13905785,13.25 L3.13883103,13.2500012 L10.9049095,13.2363279 L10.9050599,13.2363279 C11.1348508,13.2363279 11.2602869,13.1917797 11.5099695,13.0264183 C11.7176402,12.8885236 11.8869975,12.6967497 12.0303203,12.4164873 C12.0513483,12.3818982 12.0664622,12.3461654 12.0745765,12.3146659 C12.0763376,12.3074639 12.0763376,12.3074639 12.0744664,12.3156046 L13.2356803,6.9732622 C13.2445934,6.93640293 13.2484206,6.89835687 13.2476258,6.79225355 C13.2644764,6.48152379 13.1914235,6.18246638 13.0359847,5.92200335 L13.0357986,5.92169122 C12.8005072,5.52698772 12.4727683,5.33307867 11.9371549,5.30407314 C11.9219334,5.30224581 11.909481,5.30146766 11.8965064,5.30146308 L8.61050089,5.28998499 L8.81017701,4.38213014 C8.90630674,3.94506314 8.95644644,3.50746085 8.95644644,3.10908975 C8.95644644,2.69671922 8.91241855,2.28034544 8.82574381,1.87291421 Z" id="路径"></path>
                </g>
            </g>
        </g>
    </g>
</svg>