<?xml version="1.0" encoding="UTF-8"?>
<svg width="192px" height="48px" viewBox="0 0 192 48" version="1.1" xmlns="http://www.w3.org/2000/svg" xmlns:xlink="http://www.w3.org/1999/xlink">
    <!-- Generator: Sketch 56.3 (81716) - https://sketch.com -->
    <title>public_icon_next-page-black</title>
    <desc>Created with Sketch.</desc>
    <g id="组件" stroke="none" stroke-width="1" fill="none" fill-rule="evenodd">
        <g id="临时" transform="translate(-31.000000, -250.000000)">
            <g id="public_icon_next-page-black" transform="translate(31.000000, 250.000000)">
                <g id="public/icon/public-24px/next-page_black/public_icon_next-page_black_normal">
                    <g id="public_icon_next-page_black_normal">
                        <g id="icon-mark/bg-24x24" opacity="0">
                            <g id="24x24">
                                <rect id="group/-icon-/-star/-normal" stroke="#A9A9A9" stroke-width="2" x="1" y="1" width="46" height="46"></rect>
                                <rect id="Rectangle-3" stroke="#A7A7A7" stroke-width="2" x="13" y="13" width="22" height="22"></rect>
                                <path d="M2,2 L46,46" id="Line" stroke="#A9A9A9" stroke-width="2" stroke-linecap="square"></path>
                                <path d="M45,3 L3,45" id="Line-2" stroke="#A9A9A9" stroke-width="2" stroke-linecap="square"></path>
                            </g>
                        </g>
                        <rect id="Rectangle-9" fill="#FFFFFF" opacity="0.300000012" x="0" y="0" width="48" height="48" rx="24"></rect>
                        <path d="M26.627417,24.1421356 L19.5563492,17.0710678 C18.7753006,16.2900192 18.7753006,15.0236893 19.5563492,14.2426407 C20.3373978,13.4615921 21.6037277,13.4615921 22.3847763,14.2426407 L30.8700577,22.7279221 C31.6511063,23.5089706 31.6511063,24.7753006 30.8700577,25.5563492 L22.3847763,34.0416306 C21.6037277,34.8226791 20.3373978,34.8226791 19.5563492,34.0416306 C18.7753006,33.260582 18.7753006,31.994252 19.5563492,31.2132034 L26.627417,24.1421356 L26.627417,24.1421356 Z" id="路径" fill="#000000" opacity="0.699999988"></path>
                    </g>
                </g>
                <g id="public/icon/public-24px/next-page_black/public_icon_next-page_black_hover" transform="translate(48.000000, 0.000000)">
                    <g id="public_icon_next-page_black_hover">
                        <g id="icon-mark/bg-24x24" opacity="0">
                            <g id="24x24">
                                <rect id="group/-icon-/-star/-normal" stroke="#A9A9A9" stroke-width="2" x="1" y="1" width="46" height="46"></rect>
                                <rect id="Rectangle-3" stroke="#A7A7A7" stroke-width="2" x="13" y="13" width="22" height="22"></rect>
                                <path d="M2,2 L46,46" id="Line" stroke="#A9A9A9" stroke-width="2" stroke-linecap="square"></path>
                                <path d="M45,3 L3,45" id="Line-2" stroke="#A9A9A9" stroke-width="2" stroke-linecap="square"></path>
                            </g>
                        </g>
                        <rect id="Rectangle-9" fill="#FFFFFF" opacity="0.300000012" x="0" y="0" width="48" height="48" rx="24"></rect>
                        <path d="M26.627417,24.1421356 L19.5563492,17.0710678 C18.7753006,16.2900192 18.7753006,15.0236893 19.5563492,14.2426407 C20.3373978,13.4615921 21.6037277,13.4615921 22.3847763,14.2426407 L30.8700577,22.7279221 C31.6511063,23.5089706 31.6511063,24.7753006 30.8700577,25.5563492 L22.3847763,34.0416306 C21.6037277,34.8226791 20.3373978,34.8226791 19.5563492,34.0416306 C18.7753006,33.260582 18.7753006,31.994252 19.5563492,31.2132034 L26.627417,24.1421356 L26.627417,24.1421356 Z" id="路径" fill="#000000" opacity="0.900000036"></path>
                    </g>
                </g>
                <g id="public/icon/public-24px/next-page_black/public_icon_next-page_black_active" transform="translate(96.000000, 0.000000)">
                    <g id="public_icon_next-page_black_active">
                        <g id="icon-mark/bg-24x24" opacity="0">
                            <g id="24x24">
                                <rect id="group/-icon-/-star/-normal" stroke="#A9A9A9" stroke-width="2" x="1" y="1" width="46" height="46"></rect>
                                <rect id="Rectangle-3" stroke="#A7A7A7" stroke-width="2" x="13" y="13" width="22" height="22"></rect>
                                <path d="M2,2 L46,46" id="Line" stroke="#A9A9A9" stroke-width="2" stroke-linecap="square"></path>
                                <path d="M45,3 L3,45" id="Line-2" stroke="#A9A9A9" stroke-width="2" stroke-linecap="square"></path>
                            </g>
                        </g>
                        <rect id="Rectangle-9" fill="#FFFFFF" opacity="0.300000012" x="0" y="0" width="48" height="48" rx="24"></rect>
                        <path d="M26.627417,24.1421356 L19.5563492,17.0710678 C18.7753006,16.2900192 18.7753006,15.0236893 19.5563492,14.2426407 C20.3373978,13.4615921 21.6037277,13.4615921 22.3847763,14.2426407 L30.8700577,22.7279221 C31.6511063,23.5089706 31.6511063,24.7753006 30.8700577,25.5563492 L22.3847763,34.0416306 C21.6037277,34.8226791 20.3373978,34.8226791 19.5563492,34.0416306 C18.7753006,33.260582 18.7753006,31.994252 19.5563492,31.2132034 L26.627417,24.1421356 L26.627417,24.1421356 Z" id="路径" fill="#000000" opacity="0.699999988"></path>
                    </g>
                </g>
                <g id="public/icon/public-24px/next-page_black/public_icon_next-page_black_disabled" transform="translate(144.000000, 0.000000)" opacity="0.200000003">
                    <g id="public_icon_next-page_black_disabled">
                        <g id="icon-mark/bg-24x24" opacity="0">
                            <g id="24x24">
                                <rect id="group/-icon-/-star/-normal" stroke="#A9A9A9" stroke-width="2" x="1" y="1" width="46" height="46"></rect>
                                <rect id="Rectangle-3" stroke="#A7A7A7" stroke-width="2" x="13" y="13" width="22" height="22"></rect>
                                <path d="M2,2 L46,46" id="Line" stroke="#A9A9A9" stroke-width="2" stroke-linecap="square"></path>
                                <path d="M45,3 L3,45" id="Line-2" stroke="#A9A9A9" stroke-width="2" stroke-linecap="square"></path>
                            </g>
                        </g>
                        <rect id="Rectangle-9" fill="#FFFFFF" opacity="0.300000012" x="0" y="0" width="48" height="48" rx="24"></rect>
                        <path d="M26.627417,24.1421356 L19.5563492,17.0710678 C18.7753006,16.2900192 18.7753006,15.0236893 19.5563492,14.2426407 C20.3373978,13.4615921 21.6037277,13.4615921 22.3847763,14.2426407 L30.8700577,22.7279221 C31.6511063,23.5089706 31.6511063,24.7753006 30.8700577,25.5563492 L22.3847763,34.0416306 C21.6037277,34.8226791 20.3373978,34.8226791 19.5563492,34.0416306 C18.7753006,33.260582 18.7753006,31.994252 19.5563492,31.2132034 L26.627417,24.1421356 L26.627417,24.1421356 Z" id="路径" fill="#000000" opacity="0.699999988"></path>
                    </g>
                </g>
            </g>
        </g>
    </g>
</svg>