<?xml version="1.0" encoding="UTF-8"?>
<svg width="96px" height="24px" viewBox="0 0 96 24" version="1.1" xmlns="http://www.w3.org/2000/svg" xmlns:xlink="http://www.w3.org/1999/xlink">
    <!-- Generator: Sketch 56.3 (81716) - https://sketch.com -->
    <title>public_icon_delate</title>
    <desc>Created with Sketch.</desc>
    <defs>
        <linearGradient x1="4.7668457%" y1="11.7368154%" x2="19.2199707%" y2="88.2631846%" id="linearGradient-1">
            <stop stop-color="#CDFCFF" offset="0%"></stop>
            <stop stop-color="#99EEF3" offset="100%"></stop>
        </linearGradient>
        <linearGradient x1="4.7668457%" y1="11.7368154%" x2="121.242161%" y2="95.6154697%" id="linearGradient-2">
            <stop stop-color="#E0FFFF" offset="0%"></stop>
            <stop stop-color="#00CE88" offset="100%"></stop>
        </linearGradient>
    </defs>
    <g id="组件" stroke="none" stroke-width="1" fill="none" fill-rule="evenodd">
        <g id="直播平台通用版切图（连图）" transform="translate(-1075.000000, -964.000000)">
            <g id="public_icon_delate" transform="translate(1075.000000, 964.000000)">
                <g id="public/icon/public-24px/delate/public_icon_delate_normal">
                    <g id="public_icon_delate_normal">
                        <g id="icon-mark/bg-24x24" opacity="0">
                            <g id="24x24">
                                <rect id="group/-icon-/-star/-normal" stroke="#A9A9A9" x="0.5" y="0.5" width="23" height="23"></rect>
                                <rect id="Rectangle-3" stroke="#A7A7A7" x="6.5" y="6.5" width="11" height="11"></rect>
                                <path d="M1,1 L23,23" id="Line" stroke="#A9A9A9" stroke-linecap="square"></path>
                                <path d="M22.5,1.5 L1.5,22.5" id="Line-2" stroke="#A9A9A9" stroke-linecap="square"></path>
                            </g>
                        </g>
                        <path d="M16,8 L19.25,8 C19.6642136,8 20,8.33578644 20,8.75 C20,9.16421356 19.6642136,9.5 19.25,9.5 L17.5119465,9.5 L17.5119465,16.0466962 C17.5119465,17.6608295 16.2975222,18.9966962 14.7619465,18.9966962 L9.24918034,18.9966962 C7.71360459,18.9966962 6.49918034,17.6608295 6.49918034,16.0466962 L6.49918034,9.5 L4.75,9.5 C4.33578644,9.5 4,9.16421356 4,8.75 C4,8.33578644 4.33578644,8 4.75,8 L8,8 L8,7 C8,5.8954305 8.8954305,5 10,5 L14,5 C15.1045695,5 16,5.8954305 16,7 L16,8 Z M14.5,8 L14.5,7 C14.5,6.72385763 14.2761424,6.5 14,6.5 L10,6.5 C9.72385763,6.5 9.5,6.72385763 9.5,7 L9.5,8 L14.5,8 Z M16,9.5 L8,9.5 L7.99918034,16.0466962 C7.99918034,16.8626158 8.57561709,17.4966962 9.24918034,17.4966962 L14.7619465,17.4966962 C15.4355097,17.4966962 16.0119465,16.8626158 16.0119465,16.0466962 L16.0119465,9.5 L16,9.5 Z M10.5265563,11 C10.9407698,11 11.2765563,11.3357864 11.2765563,11.75 L11.2765563,15.25 C11.2765563,15.6642136 10.9407698,16 10.5265563,16 C10.1123427,16 9.77655626,15.6642136 9.77655626,15.25 L9.77655626,11.75 C9.77655626,11.3357864 10.1123427,11 10.5265563,11 Z M13.5265563,11 C13.9407698,11 14.2765563,11.3357864 14.2765563,11.75 L14.2765563,15.25 C14.2765563,15.6642136 13.9407698,16 13.5265563,16 C13.1123427,16 12.7765563,15.6642136 12.7765563,15.25 L12.7765563,11.75 C12.7765563,11.3357864 13.1123427,11 13.5265563,11 Z" id="形状结合" fill="url(#linearGradient-1)"></path>
                    </g>
                </g>
                <g id="public/icon/public-24px/delate/public_icon_delate_hover" transform="translate(24.000000, 0.000000)">
                    <g id="public_icon_delate_normal">
                        <g id="icon-mark/bg-24x24" opacity="0">
                            <g id="24x24">
                                <rect id="group/-icon-/-star/-normal" stroke="#A9A9A9" x="0.5" y="0.5" width="23" height="23"></rect>
                                <rect id="Rectangle-3" stroke="#A7A7A7" x="6.5" y="6.5" width="11" height="11"></rect>
                                <path d="M1,1 L23,23" id="Line" stroke="#A9A9A9" stroke-linecap="square"></path>
                                <path d="M22.5,1.5 L1.5,22.5" id="Line-2" stroke="#A9A9A9" stroke-linecap="square"></path>
                            </g>
                        </g>
                        <path d="M16,8 L19.25,8 C19.6642136,8 20,8.33578644 20,8.75 C20,9.16421356 19.6642136,9.5 19.25,9.5 L17.5119465,9.5 L17.5119465,16.0466962 C17.5119465,17.6608295 16.2975222,18.9966962 14.7619465,18.9966962 L9.24918034,18.9966962 C7.71360459,18.9966962 6.49918034,17.6608295 6.49918034,16.0466962 L6.49918034,9.5 L4.75,9.5 C4.33578644,9.5 4,9.16421356 4,8.75 C4,8.33578644 4.33578644,8 4.75,8 L8,8 L8,7 C8,5.8954305 8.8954305,5 10,5 L14,5 C15.1045695,5 16,5.8954305 16,7 L16,8 Z M14.5,8 L14.5,7 C14.5,6.72385763 14.2761424,6.5 14,6.5 L10,6.5 C9.72385763,6.5 9.5,6.72385763 9.5,7 L9.5,8 L14.5,8 Z M16,9.5 L8,9.5 L7.99918034,16.0466962 C7.99918034,16.8626158 8.57561709,17.4966962 9.24918034,17.4966962 L14.7619465,17.4966962 C15.4355097,17.4966962 16.0119465,16.8626158 16.0119465,16.0466962 L16.0119465,9.5 L16,9.5 Z M10.5265563,11 C10.9407698,11 11.2765563,11.3357864 11.2765563,11.75 L11.2765563,15.25 C11.2765563,15.6642136 10.9407698,16 10.5265563,16 C10.1123427,16 9.77655626,15.6642136 9.77655626,15.25 L9.77655626,11.75 C9.77655626,11.3357864 10.1123427,11 10.5265563,11 Z M13.5265563,11 C13.9407698,11 14.2765563,11.3357864 14.2765563,11.75 L14.2765563,15.25 C14.2765563,15.6642136 13.9407698,16 13.5265563,16 C13.1123427,16 12.7765563,15.6642136 12.7765563,15.25 L12.7765563,11.75 C12.7765563,11.3357864 13.1123427,11 13.5265563,11 Z" id="形状结合" fill="url(#linearGradient-2)"></path>
                    </g>
                </g>
                <g id="public/icon/public-24px/delate/public_icon_delate_active" transform="translate(48.000000, 0.000000)">
                    <g id="public_icon_delate_normal">
                        <g id="icon-mark/bg-24x24" opacity="0">
                            <g id="24x24">
                                <rect id="group/-icon-/-star/-normal" stroke="#A9A9A9" x="0.5" y="0.5" width="23" height="23"></rect>
                                <rect id="Rectangle-3" stroke="#A7A7A7" x="6.5" y="6.5" width="11" height="11"></rect>
                                <path d="M1,1 L23,23" id="Line" stroke="#A9A9A9" stroke-linecap="square"></path>
                                <path d="M22.5,1.5 L1.5,22.5" id="Line-2" stroke="#A9A9A9" stroke-linecap="square"></path>
                            </g>
                        </g>
                        <path d="M16,8 L19.25,8 C19.6642136,8 20,8.33578644 20,8.75 C20,9.16421356 19.6642136,9.5 19.25,9.5 L17.5119465,9.5 L17.5119465,16.0466962 C17.5119465,17.6608295 16.2975222,18.9966962 14.7619465,18.9966962 L9.24918034,18.9966962 C7.71360459,18.9966962 6.49918034,17.6608295 6.49918034,16.0466962 L6.49918034,9.5 L4.75,9.5 C4.33578644,9.5 4,9.16421356 4,8.75 C4,8.33578644 4.33578644,8 4.75,8 L8,8 L8,7 C8,5.8954305 8.8954305,5 10,5 L14,5 C15.1045695,5 16,5.8954305 16,7 L16,8 Z M14.5,8 L14.5,7 C14.5,6.72385763 14.2761424,6.5 14,6.5 L10,6.5 C9.72385763,6.5 9.5,6.72385763 9.5,7 L9.5,8 L14.5,8 Z M16,9.5 L8,9.5 L7.99918034,16.0466962 C7.99918034,16.8626158 8.57561709,17.4966962 9.24918034,17.4966962 L14.7619465,17.4966962 C15.4355097,17.4966962 16.0119465,16.8626158 16.0119465,16.0466962 L16.0119465,9.5 L16,9.5 Z M10.5265563,11 C10.9407698,11 11.2765563,11.3357864 11.2765563,11.75 L11.2765563,15.25 C11.2765563,15.6642136 10.9407698,16 10.5265563,16 C10.1123427,16 9.77655626,15.6642136 9.77655626,15.25 L9.77655626,11.75 C9.77655626,11.3357864 10.1123427,11 10.5265563,11 Z M13.5265563,11 C13.9407698,11 14.2765563,11.3357864 14.2765563,11.75 L14.2765563,15.25 C14.2765563,15.6642136 13.9407698,16 13.5265563,16 C13.1123427,16 12.7765563,15.6642136 12.7765563,15.25 L12.7765563,11.75 C12.7765563,11.3357864 13.1123427,11 13.5265563,11 Z" id="形状结合" fill="url(#linearGradient-1)"></path>
                    </g>
                </g>
                <g id="public/icon/public-24px/delate/public_icon_delate_disabled" transform="translate(72.000000, 0.000000)">
                    <g id="public_icon_delate_normal">
                        <g id="icon-mark/bg-24x24" opacity="0">
                            <g id="24x24">
                                <rect id="group/-icon-/-star/-normal" stroke="#A9A9A9" x="0.5" y="0.5" width="23" height="23"></rect>
                                <rect id="Rectangle-3" stroke="#A7A7A7" x="6.5" y="6.5" width="11" height="11"></rect>
                                <path d="M1,1 L23,23" id="Line" stroke="#A9A9A9" stroke-linecap="square"></path>
                                <path d="M22.5,1.5 L1.5,22.5" id="Line-2" stroke="#A9A9A9" stroke-linecap="square"></path>
                            </g>
                        </g>
                        <path d="M16,8 L19.25,8 C19.6642136,8 20,8.33578644 20,8.75 C20,9.16421356 19.6642136,9.5 19.25,9.5 L17.5119465,9.5 L17.5119465,16.0466962 C17.5119465,17.6608295 16.2975222,18.9966962 14.7619465,18.9966962 L9.24918034,18.9966962 C7.71360459,18.9966962 6.49918034,17.6608295 6.49918034,16.0466962 L6.49918034,9.5 L4.75,9.5 C4.33578644,9.5 4,9.16421356 4,8.75 C4,8.33578644 4.33578644,8 4.75,8 L8,8 L8,7 C8,5.8954305 8.8954305,5 10,5 L14,5 C15.1045695,5 16,5.8954305 16,7 L16,8 Z M14.5,8 L14.5,7 C14.5,6.72385763 14.2761424,6.5 14,6.5 L10,6.5 C9.72385763,6.5 9.5,6.72385763 9.5,7 L9.5,8 L14.5,8 Z M16,9.5 L8,9.5 L7.99918034,16.0466962 C7.99918034,16.8626158 8.57561709,17.4966962 9.24918034,17.4966962 L14.7619465,17.4966962 C15.4355097,17.4966962 16.0119465,16.8626158 16.0119465,16.0466962 L16.0119465,9.5 L16,9.5 Z M10.5265563,11 C10.9407698,11 11.2765563,11.3357864 11.2765563,11.75 L11.2765563,15.25 C11.2765563,15.6642136 10.9407698,16 10.5265563,16 C10.1123427,16 9.77655626,15.6642136 9.77655626,15.25 L9.77655626,11.75 C9.77655626,11.3357864 10.1123427,11 10.5265563,11 Z M13.5265563,11 C13.9407698,11 14.2765563,11.3357864 14.2765563,11.75 L14.2765563,15.25 C14.2765563,15.6642136 13.9407698,16 13.5265563,16 C13.1123427,16 12.7765563,15.6642136 12.7765563,15.25 L12.7765563,11.75 C12.7765563,11.3357864 13.1123427,11 13.5265563,11 Z" id="形状结合" fill="url(#linearGradient-1)" opacity="0.300000012"></path>
                    </g>
                </g>
            </g>
        </g>
    </g>
</svg>