<?xml version="1.0" encoding="UTF-8"?>
<svg width="64px" height="16px" viewBox="0 0 64 16" version="1.1" xmlns="http://www.w3.org/2000/svg" xmlns:xlink="http://www.w3.org/1999/xlink">
    <!-- Generator: Sketch 54.1 (76490) - https://sketchapp.com -->
    <title>public_icon_drop-down</title>
    <desc>Created with Sketch.</desc>
    <defs>
        <linearGradient x1="4.7668457%" y1="27.7777778%" x2="121.242161%" y2="76.4922305%" id="linearGradient-1">
            <stop stop-color="#E0FFFF" offset="0%"></stop>
            <stop stop-color="#00CE88" offset="100%"></stop>
        </linearGradient>
        <linearGradient x1="4.7668457%" y1="27.7777778%" x2="19.2199707%" y2="72.2222222%" id="linearGradient-2">
            <stop stop-color="#CDFCFF" offset="0%"></stop>
            <stop stop-color="#99EEF3" offset="100%"></stop>
        </linearGradient>
    </defs>
    <g id="组件" stroke="none" stroke-width="1" fill="none" fill-rule="evenodd">
        <g id="直播平台通用版切图（连图）" transform="translate(-1450.000000, -604.000000)">
            <g id="public_icon_drop-down" transform="translate(1450.000000, 604.000000)">
                <g id="public_icon_drop-down_normal" transform="translate(5.000000, 6.000000)" fill="#09D198">
                    <path d="M0.8,0 L5.2,-8.32667268e-16 C5.4209139,-8.73248494e-16 5.6,0.1790861 5.6,0.4 C5.6,0.486548085 5.57192885,0.570761532 5.52,0.64 L3.32,3.57333333 C3.18745166,3.75006445 2.93673112,3.78588167 2.76,3.65333333 C2.72967773,3.63059163 2.7027417,3.6036556 2.68,3.57333333 L0.48,0.64 C0.34745166,0.46326888 0.38326888,0.21254834 0.56,0.08 C0.629238468,0.0280711487 0.713451915,-3.96125259e-17 0.8,-5.55111512e-17 Z" id="矩形"></path>
                </g>
                <g id="public_icon_drop-down_hover" transform="translate(21.000000, 6.000000)" fill="url(#linearGradient-1)">
                    <path d="M0.8,0 L5.2,-8.32667268e-16 C5.4209139,-8.73248494e-16 5.6,0.1790861 5.6,0.4 C5.6,0.486548085 5.57192885,0.570761532 5.52,0.64 L3.32,3.57333333 C3.18745166,3.75006445 2.93673112,3.78588167 2.76,3.65333333 C2.72967773,3.63059163 2.7027417,3.6036556 2.68,3.57333333 L0.48,0.64 C0.34745166,0.46326888 0.38326888,0.21254834 0.56,0.08 C0.629238468,0.0280711487 0.713451915,-3.96125259e-17 0.8,-5.55111512e-17 Z" id="矩形"></path>
                </g>
                <g id="public_icon_drop-down_active" transform="translate(37.000000, 6.000000)" fill="url(#linearGradient-2)">
                    <path d="M0.8,0 L5.2,-8.32667268e-16 C5.4209139,-8.73248494e-16 5.6,0.1790861 5.6,0.4 C5.6,0.486548085 5.57192885,0.570761532 5.52,0.64 L3.32,3.57333333 C3.18745166,3.75006445 2.93673112,3.78588167 2.76,3.65333333 C2.72967773,3.63059163 2.7027417,3.6036556 2.68,3.57333333 L0.48,0.64 C0.34745166,0.46326888 0.38326888,0.21254834 0.56,0.08 C0.629238468,0.0280711487 0.713451915,-3.96125259e-17 0.8,-5.55111512e-17 Z" id="矩形"></path>
                </g>
                <g id="public_icon_drop-down_disabled" opacity="0.200000003" transform="translate(53.000000, 6.000000)" fill="url(#linearGradient-2)">
                    <path d="M0.8,0 L5.2,-8.32667268e-16 C5.4209139,-8.73248494e-16 5.6,0.1790861 5.6,0.4 C5.6,0.486548085 5.57192885,0.570761532 5.52,0.64 L3.32,3.57333333 C3.18745166,3.75006445 2.93673112,3.78588167 2.76,3.65333333 C2.72967773,3.63059163 2.7027417,3.6036556 2.68,3.57333333 L0.48,0.64 C0.34745166,0.46326888 0.38326888,0.21254834 0.56,0.08 C0.629238468,0.0280711487 0.713451915,-3.96125259e-17 0.8,-5.55111512e-17 Z" id="矩形"></path>
                </g>
            </g>
        </g>
    </g>
</svg>