<?xml version="1.0" encoding="UTF-8"?>
<svg width="64px" height="16px" viewBox="0 0 64 16" version="1.1" xmlns="http://www.w3.org/2000/svg" xmlns:xlink="http://www.w3.org/1999/xlink">
    <!-- Generator: Sketch 56.2 (81672) - https://sketch.com -->
    <title>public_icon_checkbox-off</title>
    <desc>Created with Sketch.</desc>
    <defs>
        <linearGradient x1="4.7668457%" y1="0%" x2="19.2199707%" y2="100%" id="linearGradient-1">
            <stop stop-color="#CDFCFF" offset="0%"></stop>
            <stop stop-color="#99EEF3" offset="100%"></stop>
        </linearGradient>
        <linearGradient x1="4.7668457%" y1="0%" x2="121.242161%" y2="109.607519%" id="linearGradient-2">
            <stop stop-color="#E0FFFF" offset="0%"></stop>
            <stop stop-color="#00CE88" offset="100%"></stop>
        </linearGradient>
    </defs>
    <g id="组件" stroke="none" stroke-width="1" fill="none" fill-rule="evenodd">
        <g id="直播平台通用版切图（连图）" transform="translate(-1371.000000, -472.000000)">
            <g id="public_icon_checkbox-off" transform="translate(1371.000000, 472.000000)">
                <g id="public/icon/public-16px/radiobox-on/public_icon_radiobox-on_normal">
                    <g id="public_icon_radiobox-on_normal">
                        <g id="icon-mark/bg-16x16" opacity="0">
                            <g id="24x24">
                                <rect id="group/-icon-/-star/-normal" stroke="#A9A9A9" x="0.5" y="0.5" width="15" height="15"></rect>
                                <rect id="Rectangle-3" stroke="#A7A7A7" x="2.5" y="2.5" width="11" height="11"></rect>
                                <path d="M1,1 L15,15" id="Line" stroke="#A9A9A9" stroke-linecap="square"></path>
                                <path d="M15,1 L1,15" id="Line-2" stroke="#A9A9A9" stroke-linecap="square"></path>
                            </g>
                        </g>
                        <path d="M8,2 C11.3137085,2 14,4.6862915 14,8 C14,11.3137085 11.3137085,14 8,14 C4.6862915,14 2,11.3137085 2,8 C2,4.6862915 4.6862915,2 8,2 Z M8,4 C5.790861,4 4,5.790861 4,8 C4,10.209139 5.790861,12 8,12 C10.209139,12 12,10.209139 12,8 C12,5.790861 10.209139,4 8,4 Z" id="形状结合" fill="url(#linearGradient-1)" fill-rule="nonzero"></path>
                    </g>
                </g>
                <g id="public/icon/public-16px/radiobox-on/public_icon_radiobox-on_hover" transform="translate(16.000000, 0.000000)">
                    <g id="public_icon_radiobox-on_hover">
                        <g id="icon-mark/bg-16x16" opacity="0">
                            <g id="24x24">
                                <rect id="group/-icon-/-star/-normal" stroke="#A9A9A9" x="0.5" y="0.5" width="15" height="15"></rect>
                                <rect id="Rectangle-3" stroke="#A7A7A7" x="2.5" y="2.5" width="11" height="11"></rect>
                                <path d="M1,1 L15,15" id="Line" stroke="#A9A9A9" stroke-linecap="square"></path>
                                <path d="M15,1 L1,15" id="Line-2" stroke="#A9A9A9" stroke-linecap="square"></path>
                            </g>
                        </g>
                        <path d="M8,3 C5.23857625,3 3,5.23857625 3,8 C3,10.7614237 5.23857625,13 8,13 C10.7614237,13 13,10.7614237 13,8 C13,5.23857625 10.7614237,3 8,3 Z M8,3 C10.7614237,3 13,5.23857625 13,8 C13,10.7614237 10.7614237,13 8,13 C5.23857625,13 3,10.7614237 3,8 C3,5.23857625 5.23857625,3 8,3 Z" id="形状结合" stroke="url(#linearGradient-2)" stroke-width="2"></path>
                    </g>
                </g>
                <g id="public/icon/public-16px/radiobox-on/public_icon_radiobox-on_active" transform="translate(32.000000, 0.000000)">
                    <g id="public_icon_radiobox-on_active">
                        <g id="icon-mark/bg-16x16" opacity="0">
                            <g id="24x24">
                                <rect id="group/-icon-/-star/-normal" stroke="#A9A9A9" x="0.5" y="0.5" width="15" height="15"></rect>
                                <rect id="Rectangle-3" stroke="#A7A7A7" x="2.5" y="2.5" width="11" height="11"></rect>
                                <path d="M1,1 L15,15" id="Line" stroke="#A9A9A9" stroke-linecap="square"></path>
                                <path d="M15,1 L1,15" id="Line-2" stroke="#A9A9A9" stroke-linecap="square"></path>
                            </g>
                        </g>
                        <path d="M8,2 C11.3137085,2 14,4.6862915 14,8 C14,11.3137085 11.3137085,14 8,14 C4.6862915,14 2,11.3137085 2,8 C2,4.6862915 4.6862915,2 8,2 Z M8,4 C5.790861,4 4,5.790861 4,8 C4,10.209139 5.790861,12 8,12 C10.209139,12 12,10.209139 12,8 C12,5.790861 10.209139,4 8,4 Z" id="形状结合" fill="url(#linearGradient-1)" fill-rule="nonzero"></path>
                    </g>
                </g>
                <g id="public/icon/public-16px/radiobox-on/public_icon_radiobox-on_disabled" transform="translate(48.000000, 0.000000)">
                    <g id="public_icon_radiobox-on_disabled">
                        <g id="icon-mark/bg-16x16" opacity="0">
                            <g id="24x24">
                                <rect id="group/-icon-/-star/-normal" stroke="#A9A9A9" x="0.5" y="0.5" width="15" height="15"></rect>
                                <rect id="Rectangle-3" stroke="#A7A7A7" x="2.5" y="2.5" width="11" height="11"></rect>
                                <path d="M1,1 L15,15" id="Line" stroke="#A9A9A9" stroke-linecap="square"></path>
                                <path d="M15,1 L1,15" id="Line-2" stroke="#A9A9A9" stroke-linecap="square"></path>
                            </g>
                        </g>
                        <path d="M8,2 C11.3137085,2 14,4.6862915 14,8 C14,11.3137085 11.3137085,14 8,14 C4.6862915,14 2,11.3137085 2,8 C2,4.6862915 4.6862915,2 8,2 Z M8,4 C5.790861,4 4,5.790861 4,8 C4,10.209139 5.790861,12 8,12 C10.209139,12 12,10.209139 12,8 C12,5.790861 10.209139,4 8,4 Z" id="形状结合" fill="url(#linearGradient-1)" fill-rule="nonzero" opacity="0.200000003"></path>
                    </g>
                </g>
            </g>
        </g>
    </g>
</svg>